<svg width="364" height="295" viewBox="0 0 364 295" fill="none" xmlns="http://www.w3.org/2000/svg">
<g filter="url(#filter0_i_105_91)">
<path fill-rule="evenodd" clip-rule="evenodd" d="M248.111 0.371182C270.642 -1.1517 293.207 4.34732 313.046 15.1336C333.169 26.0739 354.404 40.3354 361.609 62.0772C368.702 83.4813 351.172 105.073 350.317 127.605C349.507 148.97 365.92 171.014 356.744 190.325C347.601 209.565 321.579 212.429 304.175 224.711C284.72 238.439 271.725 263.933 248.111 266.983C224.457 270.039 201.507 255.419 183.011 240.362C165.873 226.411 160.259 203.785 147.941 185.438C134.582 165.539 106.482 151.558 107.312 127.605C108.15 103.467 137.064 91.1228 151.874 72.0429C164.449 55.8422 171.605 35.8316 188.053 23.5821C205.565 10.5405 226.326 1.84363 248.111 0.371182Z" fill="#FFA488"/>
</g>
<path d="M347.501 235.604C347.501 250.621 273.525 262.805 182.286 262.805C91.0473 262.805 17.0708 250.621 17.0708 235.604C17.0708 220.571 91.0473 208.387 182.286 208.387C273.525 208.387 347.501 220.571 347.501 235.604Z" fill="#EBE3D9"/>
<path d="M282.374 172.169C282.374 174.393 282.301 176.6 282.156 178.789H79.3324C79.1871 176.6 79.1145 174.393 79.1145 172.169C79.1145 116.042 124.617 70.5397 180.744 70.5397C236.872 70.5397 282.374 116.042 282.374 172.169Z" fill="white"/>
<path d="M82.5166 175.438C82.4831 174.354 82.4663 173.264 82.4663 172.169C82.4663 145.907 92.6896 121.237 111.259 102.668C129.812 84.1149 154.499 73.8916 180.744 73.8916C206.99 73.8916 231.676 84.1149 250.229 102.668C268.799 121.237 279.022 145.907 279.022 172.169C279.022 173.264 279 174.354 278.955 175.438H82.5166Z" fill="#CBE8F9"/>
<path d="M275.67 172.086H85.8184C85.8184 164.041 86.8239 156.164 88.768 148.572C88.8798 148.114 88.9971 147.667 89.12 147.231C91.9691 136.69 96.6283 126.734 102.93 117.751C103.254 117.304 103.578 116.857 103.902 116.411C106.03 113.494 108.326 110.679 110.807 107.981C111.254 107.5 111.701 107.025 112.148 106.556C112.639 106.042 113.131 105.539 113.622 105.048C122.538 96.1315 132.913 89.2099 144.209 84.5004C144.655 84.3105 145.102 84.1317 145.549 83.9641C155.655 79.9251 166.465 77.6458 177.593 77.2938C178.04 77.2827 178.487 77.2715 178.934 77.2603C179.538 77.2491 180.141 77.2436 180.744 77.2436C191.185 77.2436 201.375 78.9195 210.995 82.1373C211.442 82.2938 211.889 82.4502 212.336 82.6066C224.084 86.7294 234.945 93.1986 244.38 101.729C244.838 102.143 245.285 102.562 245.721 102.986C246.447 103.657 247.162 104.344 247.866 105.048C251.436 108.617 254.67 112.405 257.587 116.411C257.911 116.857 258.229 117.304 258.542 117.751C264.86 126.734 269.519 136.69 272.369 147.231C272.491 147.667 272.609 148.114 272.72 148.572C274.665 156.164 275.653 164.041 275.67 172.086Z" fill="white"/>
<path fill-rule="evenodd" clip-rule="evenodd" d="M272.72 148.572H245.721V172.086H244.38V148.572H212.336V172.086H210.995V148.572H178.934V172.086H177.593V148.572H145.549V172.086H144.208V148.572H112.147V172.086H110.807V148.572H88.7678C88.8796 148.114 88.9969 147.667 89.1198 147.231H110.807V117.751H102.93C103.254 117.304 103.578 116.857 103.902 116.411H110.807V107.981C111.254 107.5 111.7 107.025 112.147 106.556V116.411H144.208V84.5004C144.655 84.3105 145.102 84.1317 145.549 83.9641V116.411H177.593V77.2938C178.04 77.2827 178.487 77.2715 178.934 77.2603V116.411H210.995V82.1373C211.442 82.2938 211.889 82.4502 212.336 82.6066V116.411H244.38V101.729C244.838 102.143 245.285 102.562 245.721 102.986V116.411H257.586C257.91 116.857 258.229 117.304 258.542 117.751H245.721V147.231H272.368C272.491 147.667 272.609 148.114 272.72 148.572ZM144.208 117.751H112.147V147.231H144.208V117.751ZM177.593 117.751H145.549V147.215H177.593V117.751ZM210.995 117.751H178.934V147.231H210.995V117.751ZM244.38 117.751H212.336V147.215H244.38V117.751Z" fill="#CBE8F9"/>
<path d="M175.951 203.661C162.996 203.661 152.488 202.689 152.488 201.499C152.488 200.309 162.996 199.337 175.951 199.337C188.889 199.337 199.397 200.309 199.397 201.499C199.397 202.689 188.889 203.661 175.951 203.661Z" fill="#1B1B1B"/>
<path d="M175.666 68.0593C175.683 69.7855 175.18 73.8749 174.443 78.2659C173.538 83.5954 172.297 89.3774 171.258 91.8578C170.873 90.4668 170.27 89.1763 169.968 86.3104C169.432 81.2658 169.666 84.4501 168.141 80.4949C166.633 76.5564 166.633 76.791 166.331 73.9084C166.029 71.1263 165.46 71.5788 163.197 69.7353C163.298 68.8805 163.633 67.6403 164.655 66.8526C166.331 65.5621 166.18 65.78 167.085 63.199C167.99 60.6181 170.119 62.9812 172.398 59.0259C174.677 55.0874 176.94 55.2383 177.258 55.3891C177.56 55.5399 175.582 63.97 175.666 68.0593Z" fill="#579951"/>
<path d="M196.749 76.8916C196.448 79.1374 194.923 78.3832 194.537 80.277C194.168 82.1708 194.168 84.0647 192.342 84.3663C190.532 84.668 188.102 85.5898 186.208 85.2881C187.917 86.0702 189.733 86.087 191.655 85.3384C190.649 86.668 190.068 87.9361 189.912 89.1428C189.694 90.9696 187.029 91.0534 186.878 94.0031C186.727 96.9695 185.671 97.3382 183.845 98.6287C182.336 99.7013 182.504 101.344 181.901 104.042C181.783 104.595 181.632 105.182 181.414 105.835C180.711 108.031 179.353 109.388 177.761 109.623C176.605 109.791 175.348 109.372 174.141 108.265C173.85 108.444 173.493 108.612 173.068 108.768C172.834 108.852 172.565 108.936 172.297 108.986C171.51 109.137 170.621 109.12 169.817 108.584C169.867 107.779 169.867 106.824 170.353 105.617C171.56 102.584 171.174 100.305 171.56 95.8969C171.727 94.0198 171.543 92.9137 171.258 91.8579C172.297 89.3774 173.538 83.5954 174.443 78.2659C175.532 77.3273 177.007 76.5564 178.616 77.1598C181.8 78.3832 180.141 76.6402 183.241 76.6402C186.359 76.6402 188.102 76.7072 188.554 76.6402C189.007 76.5564 186.66 75.1989 185.135 75.4168C186.252 73.8525 187.794 73.2436 189.761 73.59C192.727 74.1263 194.018 73.8246 195.006 73.59C195.979 73.3721 197.051 74.6626 196.749 76.8916Z" fill="#3F6A3A"/>
<path d="M170.37 89.1595C170.169 89.1595 170.001 88.9919 170.001 88.7908C170.035 81.9362 175.23 66.0314 175.448 65.361C175.515 65.1599 175.716 65.0594 175.901 65.1264C176.102 65.1934 176.202 65.3945 176.135 65.5789C176.085 65.7465 170.755 82.0535 170.722 88.7908C170.722 88.9919 170.571 89.1595 170.37 89.1595Z" fill="#2B322E"/>
<path d="M179.035 167.426C179.035 167.438 179.035 167.449 179.035 167.46C179.035 167.471 179.029 167.477 179.018 167.477C178.996 167.521 178.945 167.561 178.867 167.594C178.845 167.605 178.822 167.611 178.8 167.611C178.744 167.644 178.672 167.672 178.582 167.695C178.549 167.706 178.521 167.711 178.498 167.711C178.063 167.829 177.376 167.929 176.487 168.03C176.398 168.041 176.308 168.047 176.219 168.047C176.186 168.058 176.152 168.063 176.119 168.063C175.973 168.075 175.828 168.091 175.683 168.114C175.605 168.114 175.526 168.119 175.448 168.13C175.37 168.13 175.292 168.136 175.214 168.147C174.901 168.169 174.571 168.192 174.225 168.214C174.046 168.225 173.867 168.237 173.688 168.248C173.498 168.259 173.309 168.27 173.119 168.281C172.862 168.292 172.593 168.304 172.314 168.315C171.376 168.365 170.353 168.399 169.281 168.432C169.124 168.432 168.962 168.438 168.795 168.449C168.761 168.449 168.728 168.449 168.694 168.449C168.471 168.449 168.242 168.454 168.007 168.466C167.649 168.466 167.292 168.471 166.934 168.482C166.778 168.482 166.616 168.482 166.448 168.482C166.013 168.482 165.56 168.482 165.091 168.482H165.007C164.784 168.494 164.554 168.499 164.32 168.499C163.806 168.499 163.303 168.494 162.811 168.482C162.566 168.482 162.32 168.482 162.074 168.482C160.013 168.449 158.085 168.399 156.393 168.332C155.923 168.309 155.471 168.281 155.035 168.248C154.8 168.237 154.571 168.225 154.348 168.214C154.024 168.192 153.717 168.169 153.426 168.147C152.722 168.08 152.085 168.03 151.566 167.963C151.443 167.94 151.326 167.924 151.214 167.913C151.113 167.901 151.013 167.885 150.912 167.862C150.158 167.745 149.706 167.611 149.622 167.477C149.622 167.477 149.616 167.471 149.605 167.46C149.605 167.449 149.605 167.438 149.605 167.426C149.605 167.058 152.303 166.723 156.393 166.538C156.627 166.527 156.867 166.516 157.113 166.505C158.119 166.454 159.208 166.421 160.365 166.404C160.588 166.404 160.823 166.399 161.068 166.387H161.085C161.32 166.387 161.549 166.387 161.772 166.387C162.096 166.376 162.415 166.371 162.728 166.371C162.973 166.371 163.219 166.371 163.465 166.371C163.744 166.371 164.029 166.371 164.32 166.371H164.538C164.739 166.371 164.946 166.371 165.158 166.371H165.258C165.471 166.371 165.683 166.371 165.895 166.371C166.387 166.371 166.867 166.376 167.337 166.387C167.582 166.387 167.828 166.393 168.074 166.404C169.415 166.421 170.672 166.471 171.828 166.521C172.074 166.533 172.314 166.544 172.549 166.555C176.47 166.739 179.035 167.058 179.035 167.426Z" fill="#2B312C"/>
<path d="M151.566 167.963C152.085 168.03 152.722 168.08 153.426 168.147C152.711 168.091 152.091 168.03 151.566 167.963Z" fill="#4C6564"/>
<path d="M155.035 168.248C155.471 168.281 155.923 168.309 156.393 168.332C155.923 168.309 155.471 168.281 155.035 168.248Z" fill="#4C6564"/>
<path d="M172.314 168.315C172.594 168.304 172.862 168.292 173.119 168.281C172.862 168.292 172.594 168.304 172.314 168.315Z" fill="#4C6564"/>
<path d="M180.895 182.745C179.99 189.024 178.471 195.214 176.336 201.314C176.336 201.633 175.465 201.934 173.973 202.186C171.795 202.538 168.275 202.772 164.32 202.772C160.616 202.772 157.314 202.571 155.119 202.253C153.359 202.001 152.32 201.666 152.32 201.314C150.175 195.214 148.65 189.024 147.745 182.745C146.829 176.477 147.449 171.371 149.605 167.427C149.605 167.438 149.605 167.449 149.605 167.46C149.616 167.471 149.622 167.477 149.622 167.477C149.706 167.611 150.158 167.745 150.912 167.862C151.002 167.885 151.102 167.901 151.214 167.913C151.326 167.924 151.443 167.94 151.566 167.963C151.868 167.996 152.208 168.03 152.588 168.063C152.856 168.097 153.136 168.125 153.426 168.147C153.717 168.17 154.024 168.192 154.348 168.214C154.571 168.225 154.801 168.237 155.035 168.248C155.471 168.281 155.923 168.309 156.393 168.332C158.085 168.399 160.013 168.449 162.074 168.482C162.32 168.482 162.566 168.482 162.812 168.482C163.303 168.494 163.806 168.499 164.32 168.499C164.555 168.499 164.784 168.494 165.007 168.482H165.091C165.56 168.482 166.013 168.482 166.448 168.482C166.616 168.482 166.778 168.482 166.934 168.482C167.292 168.471 167.649 168.466 168.007 168.466C168.242 168.454 168.471 168.449 168.694 168.449C168.728 168.449 168.761 168.449 168.795 168.449C168.962 168.438 169.124 168.432 169.281 168.432C170.353 168.399 171.376 168.365 172.314 168.315C172.594 168.304 172.862 168.292 173.119 168.281C173.309 168.27 173.499 168.259 173.688 168.248C173.867 168.237 174.046 168.225 174.225 168.214C174.571 168.192 174.901 168.17 175.214 168.147C175.292 168.136 175.37 168.13 175.448 168.13C175.526 168.119 175.605 168.114 175.683 168.114C175.761 168.102 175.839 168.091 175.918 168.08C175.985 168.08 176.052 168.075 176.119 168.063C176.152 168.063 176.186 168.058 176.219 168.047C176.309 168.047 176.398 168.041 176.487 168.03C177.376 167.929 178.063 167.829 178.498 167.711C178.521 167.711 178.549 167.706 178.582 167.695C178.672 167.672 178.744 167.644 178.8 167.611C178.822 167.611 178.845 167.605 178.867 167.594C178.945 167.561 178.996 167.521 179.018 167.477C179.029 167.477 179.035 167.471 179.035 167.46C179.035 167.449 179.035 167.438 179.035 167.427C181.191 171.371 181.811 176.477 180.895 182.745Z" fill="#CBE8F9"/>
<path d="M171.56 95.8969C171.174 100.305 171.56 102.584 170.353 105.617C169.867 106.824 169.867 107.779 169.817 108.584C169.767 109.791 169.616 110.712 167.621 111.751C165.124 113.059 160.633 112.841 158.487 112.64C158.353 112.628 158.23 112.617 158.119 112.606C157.974 112.595 157.851 112.584 157.75 112.573C157.56 112.55 157.409 112.528 157.298 112.506C151.99 113.98 148.678 113.679 147.359 111.601C145.566 108.768 146.471 107.763 145.851 106.003C145.795 105.824 145.717 105.64 145.616 105.45C144.56 103.338 143.186 102.048 143.722 99.6175C144.259 97.1873 141.745 95.679 142.516 88.5394C143.27 81.4166 142.516 80.277 143.186 77.696C143.873 75.1151 145.767 75.3497 145.398 72.3833C145.013 69.4336 145.918 69.8861 147.51 66.8526C149.102 63.8191 149.571 59.7131 152.136 59.7131C154.532 59.7131 154.515 59.9812 154.499 60.0147C154.566 59.9309 155.471 58.7745 157.298 59.7131C159.191 60.7019 161.085 63.132 161.471 65.1767C161.856 67.2213 160.415 67.3722 162.912 69.5006C163.013 69.5788 163.108 69.657 163.197 69.7353C165.459 71.5788 166.029 71.1263 166.331 73.9084C166.633 76.791 166.633 76.5564 168.141 80.4949C169.666 84.4501 169.431 81.2658 169.968 86.3104C170.269 89.1763 170.873 90.4668 171.258 91.8578C171.543 92.9137 171.727 94.0198 171.56 95.8969Z" fill="#BBCD67"/>
<path d="M142.331 104.377C141.678 105.031 140.706 105.165 140.186 105.265C140.002 105.299 139.868 105.333 139.851 105.383C139.795 105.562 139.728 105.712 139.65 105.835C139.398 106.221 139.063 106.388 138.678 106.422C137.94 106.472 137.035 106.003 136.281 105.383C134.991 104.327 132.426 98.4779 131.588 97.2712C130.901 96.2824 132.745 94.7405 133.449 94.2042C132.829 94.6232 131.287 95.679 130.214 95.9807C128.857 96.3494 128.169 95.8299 127.801 92.4109C127.415 88.992 126.51 89.5283 123.008 88.6233C120.684 88.0087 119.7 86.897 120.058 85.2881C121.717 85.3552 124.08 83.2267 122.555 83.6792C121.047 84.1485 118.684 84.0647 118.013 82.087C117.326 80.1262 117.628 80.0424 114.443 79.8916C111.259 79.7407 110.203 79.2044 109.281 75.5006C108.376 71.7799 105.192 71.847 107.237 71.9308C109.281 71.9978 108.913 71.1766 110.874 71.1766C112.851 71.1766 118.918 71.7799 117.091 72.8358C115.281 73.9084 118.08 74.5117 120.125 74.0592C122.186 73.59 125.521 73.6738 127.415 75.1989C129.309 76.7072 132.426 79.2044 136.214 79.5899C140.002 79.9754 141.594 85.439 140.923 90.6679C140.236 95.8969 142.365 97.8745 142.968 101.662C143.186 103.036 142.851 103.858 142.331 104.377Z" fill="#BBCD67"/>
<path d="M205.046 92.6456C202.409 93.1372 201.057 94.031 200.99 95.3271C200.889 97.288 198.057 97.288 196.247 98.5114C194.42 99.7181 195.627 99.517 194.018 100.724C192.392 101.947 192.09 100.372 191.99 102.467C191.889 104.578 190.683 104.83 189.56 106.422C188.454 108.014 189.66 108.182 188.454 109.656C187.247 111.148 186.727 110.846 185.018 112.455C183.867 113.539 181.744 113.539 178.649 112.455C177.957 111.528 177.661 110.584 177.761 109.623C179.353 109.388 180.711 108.031 181.431 105.835C181.633 105.182 181.783 104.595 181.901 104.042C184.515 102.852 185.42 102.148 186.225 99.9192C187.029 97.6902 187.649 97.9919 189.761 97.7907C191.889 97.5896 191.286 96.1818 193.113 94.6567C194.923 93.1484 196.75 95.1595 199.783 93.5506C201.805 92.4668 203.56 92.1651 205.046 92.6456Z" fill="#579951"/>
<path d="M162.057 121.153C162.057 123.785 154.817 122.963 154.465 123.382C152.655 125.511 149.521 124.589 146.789 123.5C144.058 122.377 142.834 119.444 143.856 118.321C144.862 117.215 145.063 116.813 143.035 115.891C141.007 114.986 139.499 115.489 140.505 113.176C141.527 110.863 139.7 109.522 138.678 106.422C139.197 106.372 139.633 106.07 139.851 105.383C139.918 105.198 141.426 105.282 142.331 104.377C143.27 104.763 144.51 105.349 145.851 106.003C146.471 107.763 145.566 108.768 147.359 111.601C148.678 113.679 151.99 113.98 157.298 112.506C157.499 112.539 157.772 112.573 158.119 112.606C158.722 113.293 159.024 114.148 158.923 115.288C158.722 117.416 162.057 118.522 162.057 121.153Z" fill="#3F6A3A"/>
<path d="M138.678 125.712C135.225 125.612 135.058 127.522 132.426 128.494C129.795 129.466 129.594 129.651 126.46 132.282C124.371 134.036 122.449 134.069 120.695 132.382C118.265 134.511 111.393 133.287 112.7 131.779C114.008 130.254 115.332 126.818 116.639 123.986C117.963 121.153 120.996 123.282 120.393 122.31C119.773 121.355 120.695 121.556 123.527 120.181C126.359 118.807 130.499 121.254 132.611 122.511C134.706 123.785 134.136 122.477 132.929 120.952C131.706 119.444 134.136 120.148 136.968 123.181C138.856 125.204 142.063 125.539 146.588 124.187C149.203 125.209 142.13 125.813 138.678 125.712Z" fill="#579951"/>
<path d="M177.208 126.114C176.403 126.165 175.331 126.332 174.057 126.684C172.214 127.22 169.247 127.773 167.253 128.125C167.197 128.081 167.152 128.053 167.119 128.042C163.286 129.025 161.225 128.382 160.934 126.114C160.655 123.846 161.398 122.869 163.163 123.181C163.465 123.483 162.258 126.315 168.526 126.014C172.046 125.846 175.079 125.762 177.208 126.114Z" fill="#579951"/>
<path d="M178.23 135.215C178.448 137.645 173.605 134.762 171.627 133.522C169.633 132.282 167.42 131.98 167.823 130.254C168.141 128.93 167.538 128.327 167.253 128.125C169.247 127.773 172.214 127.22 174.057 126.684C175.331 126.332 176.403 126.165 177.208 126.114C178.884 126.366 180.007 126.902 180.359 127.824C181.163 129.952 178.029 132.785 178.23 135.215Z" fill="#3F6A3A"/>
<path d="M186.426 122.477C189.263 119.774 192.722 119.606 196.8 121.975C202.917 125.511 200.788 125.209 203.319 125.41C205.85 125.611 204.425 126.131 206.956 128.494C209.487 130.874 209.386 139.472 206.956 139.773C204.526 140.075 204.224 135.215 202.112 135.617C199.984 136.019 198.459 133.522 198.459 131.142C198.459 128.746 198.157 128.159 196.347 128.494C194.52 128.846 196.247 126.902 193.816 126.114C191.386 125.31 191.386 126.751 190.163 124.673C189.358 123.276 188.113 122.544 186.426 122.477Z" fill="#579951"/>
<path d="M195.828 155.443C196.241 157.6 195.029 158.41 192.191 157.874C191.688 160.304 186.627 157.27 185.822 154.337C185.018 151.404 183.996 151.807 181.247 151.807C178.482 151.807 180.962 150.382 177.627 147.349C174.292 144.315 172.364 146.946 173.286 144.315C173.554 143.511 173.605 143.108 173.454 142.924C173.336 142.757 173.085 142.757 172.733 142.807C172.163 142.874 171.309 143.075 170.353 142.907C168.124 142.505 169.951 141.181 172.063 139.254C173.186 138.248 174.862 137.997 176.169 137.98C176.951 137.969 177.638 138.025 178.23 138.148C178.443 138.136 178.722 138.125 179.068 138.114C180.359 138.047 182.923 137.963 184.817 137.98C187.448 138.014 187.23 137.544 188.554 139.773C189.861 142.019 191.588 140.879 194.42 142.187C197.252 143.511 196.649 143.812 194.973 145.924C193.297 148.053 196.029 147.248 196.749 150.784C197.453 154.337 195.224 152.209 195.828 155.443Z" fill="#579951"/>
<path d="M157.113 166.505C156.868 166.516 156.627 166.527 156.393 166.538C155.789 160.186 154.097 151.89 151.348 141.801C150.376 138.248 149.287 134.494 148.08 130.589C148.013 130.366 147.94 130.137 147.862 129.902C147.516 128.762 147.153 127.611 146.773 126.449C146.627 126.003 146.488 125.556 146.354 125.109C144.309 118.824 142.047 112.288 139.65 105.835C139.728 105.712 139.795 105.562 139.851 105.383C139.868 105.332 140.002 105.299 140.186 105.265C142.784 112.221 145.231 119.276 147.393 126.03C147.56 126.533 147.722 127.03 147.879 127.522C148.113 128.259 148.343 128.991 148.566 129.718C148.633 129.941 148.706 130.17 148.784 130.405C149.974 134.293 151.08 138.064 152.052 141.6C154.801 151.756 156.493 160.103 157.113 166.505Z" fill="#2B312C"/>
<path d="M140.186 105.265C140.002 105.299 139.868 105.333 139.851 105.383C139.795 105.562 139.728 105.712 139.65 105.835C139.605 105.724 139.56 105.612 139.516 105.5C131.655 84.4166 121.298 80.0759 119.287 79.4055H119.253C119.069 79.3385 118.968 79.1374 119.035 78.9363C119.103 78.7519 119.304 78.6514 119.488 78.7184H119.522C121.566 79.4055 132.225 83.8468 140.186 105.249C140.186 105.26 140.186 105.265 140.186 105.265Z" fill="#3F6A3A"/>
<path d="M161.085 166.387H161.069C160.823 166.399 160.588 166.404 160.365 166.404C159.041 158.929 155.102 138.516 149.923 130.137C149.778 129.913 149.639 129.695 149.504 129.483C149.158 128.98 148.812 128.533 148.465 128.142C148.264 127.93 148.069 127.723 147.879 127.522C147.51 127.131 147.141 126.773 146.773 126.449C140.236 120.433 134.555 122.293 128.857 124.991C125.689 126.5 122.807 128.209 120.712 129.449C117.695 131.243 116.723 131.796 116.203 131.427C116.052 131.31 116.002 131.092 116.12 130.924C116.237 130.773 116.438 130.74 116.589 130.824C117.025 130.824 118.7 129.818 120.343 128.829C122.455 127.572 125.337 125.863 128.555 124.338C131.656 122.88 135.007 121.539 138.46 121.757C141.192 121.908 143.789 123.014 146.354 125.109C146.7 125.399 147.046 125.706 147.393 126.03C147.929 126.533 148.465 127.075 149.002 127.656C149.426 128.125 149.851 128.684 150.275 129.332C150.409 129.544 150.544 129.768 150.678 130.002C153.175 134.142 155.638 141.332 158.035 151.455C159.46 157.421 160.499 163.036 161.069 166.253C161.069 166.298 161.074 166.343 161.085 166.387Z" fill="#3F6A3A"/>
<path d="M173.454 142.924C172.197 145.84 170.99 150.114 169.867 155.628C169.046 159.7 168.443 163.672 168.074 166.404C167.828 166.393 167.582 166.387 167.336 166.387C168.124 160.639 169.917 149.377 172.733 142.807C173.085 142.757 173.336 142.757 173.454 142.924Z" fill="#2B312C"/>
<path d="M191.521 155.846C191.336 155.929 191.135 155.846 191.051 155.661C191.001 155.51 185.085 141.064 178.113 138.483C177.526 138.265 176.957 138.332 176.37 138.701C175.381 139.304 174.409 140.729 173.454 142.924C173.336 142.756 173.085 142.756 172.733 142.807C173.705 140.544 174.795 138.835 176.001 138.081C176.057 138.047 176.113 138.014 176.169 137.98C176.89 137.595 177.627 137.544 178.364 137.812C178.599 137.902 178.834 138.002 179.068 138.114C181.917 139.455 184.85 142.656 187.833 147.65C190.197 151.639 191.705 155.343 191.722 155.376C191.805 155.578 191.705 155.779 191.521 155.846Z" fill="#4C6564"/>
<path d="M162.04 154.957C162.04 158.577 161.957 162.382 161.772 166.387C161.549 166.387 161.32 166.387 161.085 166.387H161.068C161.068 166.343 161.068 166.298 161.068 166.253C161.353 159.583 161.387 153.449 161.253 147.885C161.208 146.019 161.147 144.22 161.068 142.488V142.472C160.398 128.176 158.705 118.17 157.767 112.673C157.756 112.64 157.75 112.606 157.75 112.573C157.851 112.584 157.973 112.595 158.119 112.606C158.23 112.617 158.353 112.628 158.487 112.64C159.543 118.841 161.538 130.623 161.973 147.717C162.029 150.03 162.052 152.443 162.04 154.957Z" fill="#2B322E"/>
<path d="M158.488 112.64C158.354 112.628 158.231 112.617 158.119 112.606C157.974 112.595 157.851 112.584 157.75 112.573C156.694 106.238 155.119 85.7406 154.18 73.4727C153.778 68.1934 153.46 64.0203 153.393 63.6851C153.326 63.484 153.426 63.2996 153.627 63.2326C153.812 63.1656 154.013 63.2829 154.08 63.4672C154.164 63.7019 154.348 66.0985 154.901 73.4224C155.84 85.7406 157.415 106.372 158.471 112.539C158.482 112.573 158.488 112.606 158.488 112.64Z" fill="#3F6A3A"/>
<path d="M173.068 108.768C172.331 112.992 171.577 117.869 170.839 122.997C170.828 123.075 170.817 123.153 170.806 123.232C170.672 124.181 170.532 125.137 170.387 126.098C168.795 137.393 167.269 149.494 166.214 158.36C165.828 161.494 165.51 164.225 165.258 166.371H165.158C164.945 166.371 164.739 166.371 164.538 166.371C164.772 164.259 165.091 161.577 165.459 158.494C165.962 154.337 166.565 149.46 167.219 144.282C167.219 144.259 167.225 144.243 167.236 144.231C167.554 141.684 167.889 139.053 168.241 136.421C168.353 135.583 168.465 134.762 168.577 133.958C168.957 131.142 169.325 128.472 169.683 125.947C170.621 119.243 171.493 113.578 172.297 108.986C172.565 108.936 172.834 108.852 173.068 108.768Z" fill="#2B312C"/>
<path d="M191.655 76.9754C191.286 77.4111 190.532 78.0983 189.509 79.0368C185.889 82.3887 179.135 88.64 176.119 95.0924C175.247 96.9527 174.191 101.88 173.068 108.383C172.834 108.45 172.566 108.534 172.297 108.584C173.554 101.21 174.627 96.6008 175.465 94.7908C178.549 88.2043 185.37 81.9027 189.023 78.5173C189.995 77.6122 190.766 76.9083 191.118 76.5061C191.252 76.3553 191.487 76.3385 191.621 76.4726C191.772 76.6067 191.789 76.8245 191.655 76.9754Z" fill="#2B312C"/>
<path d="M205.163 138.298C204.962 138.366 204.761 138.265 204.694 138.081C204.643 137.913 198.761 121.422 191.437 122.444C184.28 123.433 182.973 126.835 179.102 136.907L178.7 137.947L178.582 138.282C178.538 138.393 178.493 138.505 178.448 138.617C175.498 146.46 173.471 159.633 172.549 166.555C172.314 166.544 172.074 166.533 171.828 166.522C172.75 159.6 174.795 146.326 177.761 138.399C177.806 138.265 177.85 138.136 177.895 138.014L178.029 137.712L178.431 136.656C182.32 126.567 183.761 122.779 191.336 121.74C199.23 120.634 205.129 137.142 205.381 137.846C205.448 138.03 205.347 138.231 205.163 138.298Z" fill="#2B312C"/>
<path d="M194.621 114.517C193.197 115.489 191.588 114.047 191.789 116.796C191.99 119.545 189.459 117.383 188.353 119.779C187.23 122.176 185.32 120.098 183.694 123.148C183.035 125.193 181.052 125.88 177.744 125.209C173.99 124.438 172.147 123.667 171.476 123.332C171.331 123.254 171.225 123.193 171.158 123.148C171.046 123.181 170.901 123.215 170.722 123.248C169.298 123.517 164.806 124.22 163.884 122.276C163.136 120.723 163.136 119.645 163.884 119.042C163.471 117.667 163.84 116.919 164.99 116.796C166.7 116.612 166.582 117.014 167.253 115.187C167.923 113.377 169.029 114.383 171.158 113.679C173.286 112.958 172.147 111.249 173.873 111.148C175.616 111.047 174.828 113.679 177.744 112.154C180.66 110.645 180.996 109.321 183.308 111.148C185.621 112.958 186.627 113.897 189.258 113.176C191.889 112.455 192.292 112.556 192.493 113.26C192.694 113.98 196.029 113.545 194.621 114.517Z" fill="#BBCD67"/>
<path d="M171.476 123.332C171.096 124.103 170.733 125.025 170.387 126.098C169.716 128.176 169.113 130.807 168.577 133.958C168.057 136.924 167.621 140.36 167.236 144.231C167.225 144.243 167.219 144.259 167.219 144.282C166.917 147.365 166.649 150.734 166.431 154.371C166.348 155.728 166.281 157.052 166.214 158.36C166.063 161.226 165.962 163.957 165.895 166.371C165.683 166.371 165.471 166.371 165.258 166.371H165.158C165.225 163.991 165.325 161.326 165.459 158.494C166.012 147.332 167.186 133.706 169.683 125.947C170.001 124.941 170.353 124.036 170.722 123.248C170.744 123.248 170.772 123.243 170.806 123.232C170.957 123.198 171.074 123.181 171.124 123.165C171.135 123.165 171.146 123.165 171.158 123.165C171.158 123.153 171.158 123.148 171.158 123.148C171.225 123.193 171.331 123.254 171.476 123.332Z" fill="#2B312C"/>
<path d="M190.498 114.601C190.448 114.802 190.247 114.919 190.062 114.869C190.029 114.852 186.778 114.081 182.873 114.735C177.66 115.623 173.839 118.506 171.476 123.315C171.476 123.315 171.476 123.321 171.476 123.332C171.331 123.254 171.225 123.193 171.158 123.148C171.046 123.181 170.901 123.215 170.722 123.248C170.755 123.159 170.795 123.075 170.839 122.997C173.906 116.729 179.018 114.651 182.772 114.031C186.828 113.344 190.096 114.131 190.23 114.165C190.431 114.215 190.548 114.416 190.498 114.601Z" fill="#2B312C"/>
<path d="M157.7 132.382C157.61 132.427 157.527 132.472 157.448 132.516C157.214 132.639 157.001 132.757 156.812 132.868C154.432 134.276 154.934 135.181 151.834 137.645C148.398 140.377 146.588 144.315 143.035 144.617C139.482 144.918 139.801 143.812 137.169 145.438C135.415 146.511 134.812 146.103 135.359 144.215C134.276 144.55 133.197 144.55 132.125 144.215C130.499 143.712 130.6 140.477 131.002 138.65C131.404 136.84 132.225 136.12 132.225 133.522C132.225 131.79 132.896 131.343 134.236 132.181C132.829 130.773 133.03 129.55 136.164 128.36C139.298 127.17 140.505 128.544 144.259 130.053C144.946 130.338 145.616 130.522 146.253 130.623C146.756 130.706 147.242 130.74 147.694 130.74C149.057 130.74 150.203 130.511 151.13 130.053C151.476 130.019 151.907 129.98 152.421 129.935C152.432 129.935 152.437 129.935 152.437 129.935C153.007 129.885 153.745 129.835 154.515 129.785C156.527 129.684 158.873 129.634 160.029 129.952C162.258 130.572 161.152 130.673 157.7 132.382Z" fill="#BBCD67"/>
<path d="M163.465 166.371C163.219 166.371 162.973 166.371 162.728 166.371C162.577 162.198 162.342 158.393 162.04 154.957C161.817 152.399 161.554 150.041 161.253 147.885C160.23 140.695 158.756 135.718 156.812 132.868C157.001 132.757 157.214 132.639 157.448 132.516C158.923 134.695 160.113 137.997 161.068 142.472V142.488C161.404 144.081 161.705 145.807 161.973 147.717C162.694 152.812 163.18 158.996 163.465 166.371Z" fill="#2B322E"/>
<path d="M157.448 132.516C157.214 132.639 157.002 132.757 156.812 132.868C156.264 132.064 155.678 131.427 155.052 130.958C154.197 130.321 153.309 130.019 152.437 129.935C152.437 129.935 152.432 129.935 152.421 129.935C151.063 129.801 149.689 130.17 148.415 130.489C148.18 130.556 147.94 130.639 147.694 130.74C142.549 132.734 136.851 141.382 136.549 142.203C136.482 142.388 136.281 142.488 136.097 142.438C135.913 142.371 135.812 142.17 135.879 141.986C136.13 141.181 141.125 133.421 146.253 130.623C146.907 130.254 147.577 129.969 148.231 129.801C150.091 129.315 152.337 128.712 154.516 129.785C154.84 129.941 155.158 130.142 155.471 130.388C156.175 130.913 156.834 131.623 157.448 132.516Z" fill="#3F6A3A"/>
<path opacity="0.2" d="M176.353 190.622C175.599 195.583 174.577 199.839 173.973 202.186C171.795 202.538 168.275 202.772 164.32 202.772C160.616 202.772 157.314 202.571 155.119 202.253C154.951 201.448 154.767 200.409 154.532 199.119L152.689 190.588C152.454 189.465 153.493 188.51 154.583 188.828C163.046 191.275 170.571 190.002 174.476 188.962C175.515 188.678 176.521 189.566 176.353 190.622Z" fill="#2B312C"/>
<path opacity="0.2" d="M172.214 179.577C165.627 180.734 159.879 180.281 155.823 179.577C152.655 179.024 150.51 175.991 151.063 172.823C151.432 170.644 152.069 169.069 152.588 168.063C152.856 168.097 153.136 168.125 153.426 168.147C153.717 168.169 154.024 168.192 154.348 168.214C154.571 168.225 154.8 168.237 155.035 168.248C155.471 168.281 155.923 168.309 156.393 168.332C158.085 168.399 160.013 168.449 162.074 168.482C162.32 168.482 162.566 168.482 162.811 168.482C163.303 168.494 163.806 168.499 164.32 168.499C164.554 168.499 164.783 168.494 165.007 168.482H165.091C165.56 168.482 166.012 168.482 166.448 168.482C166.616 168.482 166.778 168.482 166.934 168.482C167.292 168.471 167.649 168.466 168.007 168.466C168.242 168.454 168.471 168.449 168.694 168.449C168.728 168.449 168.761 168.449 168.795 168.449C168.962 168.438 169.124 168.432 169.281 168.432C170.353 168.399 171.376 168.365 172.314 168.315C172.593 168.304 172.862 168.292 173.119 168.281C173.308 168.27 173.498 168.259 173.688 168.248C173.867 168.237 174.046 168.225 174.225 168.214C174.571 168.192 174.901 168.169 175.213 168.147C175.292 168.136 175.37 168.13 175.448 168.13C175.526 168.119 175.605 168.114 175.683 168.114C175.761 168.102 175.839 168.091 175.917 168.08C176.42 169.605 176.772 171.281 177.007 173.024C177.409 176.141 175.297 179.041 172.214 179.577Z" fill="#2B312C"/>
<path d="M268.246 196.756C257.989 196.756 249.676 195.934 249.676 194.929C249.676 193.923 257.989 193.102 268.246 193.102C278.519 193.102 286.832 193.923 286.832 194.929C286.832 195.934 278.519 196.756 268.246 196.756Z" fill="#1B1B1B"/>
<path d="M290.871 148.857C290.871 160.89 281.586 170.745 269.787 171.683C269.184 171.728 268.575 171.75 267.961 171.75C267.301 171.762 266.653 171.739 266.016 171.683C254.285 170.695 245.05 160.857 245.05 148.857C245.05 136.857 254.285 127.019 266.016 126.031C266.653 125.975 267.301 125.947 267.961 125.947C268.575 125.958 269.184 125.986 269.787 126.031C281.586 126.969 290.871 136.824 290.871 148.857Z" fill="#322731"/>
<path d="M267.961 165.851C258.592 165.851 250.967 158.226 250.967 148.857C250.967 139.488 258.592 131.863 267.961 131.863C277.329 131.863 284.955 139.488 284.955 148.857C284.955 158.226 277.329 165.851 267.961 165.851Z" fill="#E09D61"/>
<path d="M267.961 154.756C264.709 154.756 262.061 152.108 262.061 148.857C262.061 145.606 264.709 142.958 267.961 142.958C271.212 142.958 273.86 145.606 273.86 148.857C273.86 152.108 271.212 154.756 267.961 154.756Z" fill="#322731"/>
<path d="M269.787 112.723V126.03C269.184 125.986 268.575 125.958 267.961 125.947C267.301 125.947 266.653 125.975 266.017 126.03V112.723H269.787Z" fill="#C5614C"/>
<path d="M269.787 171.683V189.985H266.017V171.683C266.653 171.734 267.307 171.75 267.961 171.75C268.575 171.762 269.184 171.739 269.787 171.683Z" fill="#C5614C"/>
<path d="M278.502 189.616V194.812H275.335V192.532H260.637V194.812H257.469V189.616H278.502Z" fill="#C5614C"/>
<path d="M276.91 191.493V194.812H275.335V192.532H260.637V194.812H258.525V191.493H276.91Z" fill="#E49877"/>
<path d="M268.229 121.991C268.128 123.824 267.391 124.846 266.017 125.058V112.723H268.262C268.296 115.036 268.346 119.93 268.229 121.991Z" fill="#E49877"/>
<path d="M267.977 179.141C267.977 181.488 267.977 184.979 267.977 189.616H266.017V174.868C266.821 175.505 267.977 176.829 267.977 179.141Z" fill="#E49877"/>
<path fill-rule="evenodd" clip-rule="evenodd" d="M238.816 122.645C238.771 122.958 238.721 123.254 238.665 123.533C238.38 124.975 237.86 125.88 237.475 126.366L237.458 126.382C237.224 126.701 237.039 126.852 237.006 126.868V126.885C237.062 127.086 237.101 127.366 237.123 127.723C237.14 127.941 237.157 128.176 237.14 128.461C237.14 129.332 236.989 130.489 236.486 131.779C235.866 133.338 235.313 134.326 234.559 135.097C234.442 135.215 234.307 135.332 234.19 135.433C233.704 135.852 233.151 136.204 232.464 136.572C230.419 137.662 229.682 137.913 226.816 137.561C224.956 137.326 223.699 136.572 222.509 135.5C222.285 135.299 222.062 135.086 221.838 134.863C221.436 134.461 221.034 134.025 220.615 133.572C219.364 132.243 218.973 130.645 219.442 128.779C219.33 128.69 219.19 128.584 219.023 128.461C218.52 128.058 217.749 127.405 217.514 126.885C217.263 126.299 217.498 125.544 217.079 123.768C216.961 123.282 216.794 122.712 216.576 122.059C216.487 121.802 216.38 121.533 216.257 121.254C214.783 117.533 214.514 116.494 215.755 113.729C216.056 113.059 216.576 112.506 217.213 112.053C218.531 111.103 220.185 110.467 222.174 110.142C222.866 109.092 224.414 108.455 226.816 108.232C229.229 108.008 230.738 108.539 231.341 109.824C232.659 109.534 234.24 109.74 236.084 110.444C238.866 111.5 237.106 113.008 238.129 116.377C238.38 117.232 238.581 117.852 238.732 118.338C239.151 119.829 239.101 120.265 238.816 122.645ZM219.743 128.109C219.822 128.209 219.9 128.299 219.978 128.377C220.045 128.433 220.107 128.494 220.162 128.561C220.218 128.606 220.269 128.662 220.313 128.729C220.431 128.863 220.565 129.03 220.699 129.198C220.755 129.265 220.81 129.332 220.866 129.399C221.369 130.036 221.972 130.84 222.676 131.645C222.866 131.857 223.062 132.064 223.263 132.265C223.397 132.399 223.531 132.533 223.665 132.667C223.766 132.757 223.866 132.846 223.967 132.935C224.09 133.036 224.213 133.137 224.336 133.237C224.391 133.293 224.453 133.343 224.52 133.388C224.587 133.444 224.648 133.494 224.704 133.539C224.771 133.583 224.838 133.628 224.905 133.673C225.257 133.907 225.626 134.125 226.028 134.31C226.229 134.399 226.442 134.477 226.665 134.544C226.743 134.567 226.827 134.589 226.917 134.611C227.067 134.662 227.235 134.695 227.403 134.712C227.503 134.729 227.604 134.745 227.704 134.762C227.939 134.785 228.168 134.785 228.391 134.762C228.436 134.762 228.481 134.757 228.525 134.745C228.592 134.745 228.66 134.729 228.743 134.729C228.754 134.729 228.766 134.723 228.777 134.712C228.855 134.712 228.928 134.701 228.995 134.678C229.045 134.678 229.079 134.662 229.112 134.645C229.196 134.628 229.28 134.611 229.363 134.578C229.464 134.544 229.559 134.511 229.648 134.477C229.648 134.477 229.654 134.477 229.665 134.477C229.743 134.444 229.816 134.41 229.883 134.377C230.084 134.276 230.28 134.17 230.47 134.058C230.553 133.991 230.637 133.941 230.704 133.891C230.972 133.69 231.224 133.472 231.458 133.237C231.81 132.885 232.146 132.5 232.43 132.097C232.497 132.014 232.564 131.93 232.615 131.846C232.682 131.768 232.743 131.684 232.799 131.595C232.855 131.505 232.911 131.421 232.967 131.343C233.185 131.008 233.402 130.673 233.587 130.354C233.643 130.276 233.687 130.198 233.721 130.12C233.972 129.718 234.19 129.349 234.408 129.047C234.43 129.003 234.458 128.963 234.492 128.93C234.525 128.874 234.559 128.824 234.592 128.779C234.704 128.645 234.805 128.505 234.894 128.36C235.006 128.226 235.106 128.081 235.196 127.924C235.285 127.779 235.374 127.628 235.464 127.472C235.548 127.321 235.631 127.153 235.715 127.003C236.134 126.131 236.419 125.159 236.486 124.07C236.486 124.053 236.486 124.036 236.486 124.019C236.497 123.908 236.503 123.796 236.503 123.684C236.503 123.265 236.469 122.829 236.402 122.36C236.335 121.958 236.252 121.589 236.134 121.221C235.531 119.142 234.257 117.768 232.883 116.595C231.799 115.69 231.218 114.913 231.14 114.265C229.52 116.712 227.336 118.064 224.587 118.321C220.682 118.69 218.939 120.399 218.838 121.958C218.838 122.047 218.838 122.131 218.838 122.209C218.855 122.595 218.855 123.064 218.855 123.584C218.889 125.126 218.939 127.053 219.743 128.109Z" fill="#7B767A"/>
<path d="M237.14 128.461C237.14 129.332 236.989 130.489 236.486 131.779C235.866 133.338 235.313 134.326 234.559 135.097C234.442 135.215 234.308 135.332 234.19 135.433C233.704 135.852 233.151 136.204 232.464 136.572C230.419 137.662 229.682 137.913 226.816 137.561C224.956 137.326 223.699 136.572 222.509 135.5C222.286 135.299 222.062 135.086 221.839 134.863C221.436 134.461 221.034 134.025 220.615 133.572C219.364 132.243 218.973 130.645 219.442 128.779C219.922 131.561 220.576 133.164 221.403 133.589C222.643 134.243 222.593 135.315 224.168 136.17C225.727 137.041 228.693 137.846 230.688 136.824C232.682 135.801 233.905 134.997 234.877 133.321C235.85 131.645 236.386 131.327 236.503 130.354C236.604 129.382 236.503 128.528 236.503 127.958C236.503 127.706 236.788 127.673 237.123 127.723C237.14 127.941 237.157 128.176 237.14 128.461Z" fill="#4A4947"/>
<path d="M318.072 220.42H80.7234L89.7568 212.309L94.7343 207.85H306.977L318.072 220.42Z" fill="#E26659"/>
<path d="M269.871 207.314C275.603 208.119 288.139 209.459 292.111 213.247C296.066 217.035 276.123 213.817 265.899 214.722C255.659 215.61 232.414 215.543 225.878 214.135C219.358 212.727 205.481 213.817 198.275 215.225C191.051 216.649 177.962 215.107 179.102 212.945C179.85 211.493 184.442 210.588 192.878 210.23C196.649 209.979 264.14 206.51 269.871 207.314Z" fill="#1B1B1B"/>
<path d="M203.319 192.549C202.593 192.728 201.822 192.912 201.006 193.102C201.822 192.901 202.593 192.717 203.319 192.549Z" fill="#1B1B1B"/>
<path d="M204.425 192.281C204.101 192.359 203.766 192.443 203.42 192.532C203.766 192.443 204.101 192.359 204.425 192.281Z" fill="#1B1B1B"/>
<path d="M205.951 191.912C205.504 192.024 205.023 192.141 204.509 192.264C205.023 192.141 205.504 192.024 205.951 191.912Z" fill="#1B1B1B"/>
<path d="M208.515 191.292C208.012 191.415 207.47 191.549 206.889 191.694C207.47 191.549 208.012 191.415 208.515 191.292Z" fill="#1B1B1B"/>
<path d="M209.855 190.974C209.554 191.041 209.235 191.119 208.9 191.208C209.235 191.119 209.554 191.041 209.855 190.974Z" fill="#1B1B1B"/>
<path d="M210.911 190.705C210.688 190.761 210.436 190.823 210.157 190.89C210.436 190.823 210.688 190.761 210.911 190.705Z" fill="#1B1B1B"/>
<path d="M211.33 190.605C211.207 190.638 211.068 190.672 210.911 190.705C211.057 190.672 211.196 190.638 211.33 190.605Z" fill="#1B1B1B"/>
<path d="M257.888 193.186C257.134 193.152 256.346 193.203 255.626 193.37C253.229 193.94 251.386 192.231 248.838 193.219C246.844 193.99 250.531 195.717 252.24 196.437C250.263 196.689 248.117 197.091 245.922 197.728C241.196 199.08 235.542 199.733 228.961 199.689C228.85 200.102 228.732 200.638 228.609 201.297C227.738 200.878 226.833 200.392 226.246 199.973C226.112 199.873 225.995 199.756 225.878 199.622C224.922 198.448 225.174 196.286 220.933 197.158C220.509 197.247 220.112 197.314 219.744 197.359C216.09 197.795 215.252 196.186 212.621 194.778C210.688 193.739 207.906 194.046 204.275 195.7C204.14 195.722 204.012 195.75 203.889 195.784C205.934 194.527 209.487 193.052 209.436 192.331C209.369 191.326 202.314 192.817 200.353 193.253C200.576 193.208 200.794 193.158 201.006 193.102C201.822 192.912 202.593 192.728 203.319 192.549C203.353 192.549 203.386 192.543 203.42 192.532C203.766 192.443 204.101 192.359 204.425 192.281C204.459 192.281 204.487 192.275 204.509 192.264C205.023 192.141 205.504 192.024 205.95 191.912C205.973 191.912 205.995 191.907 206.018 191.895C206.319 191.828 206.61 191.761 206.889 191.694C207.47 191.549 208.012 191.415 208.515 191.292C208.649 191.259 208.777 191.231 208.9 191.208C209.235 191.119 209.554 191.041 209.855 190.974C209.956 190.94 210.057 190.912 210.157 190.89C210.436 190.823 210.688 190.761 210.911 190.705C211.068 190.672 211.207 190.638 211.33 190.605C211.721 190.504 212.006 190.432 212.185 190.387C212.453 190.471 212.822 190.504 213.308 190.622C213.727 190.705 214.665 190.689 215.889 190.605C215.867 190.638 215.839 190.672 215.805 190.705C214.95 191.728 215.202 192.415 216.157 192.8C217.062 193.152 218.604 193.219 220.364 193.035C220.933 192.968 221.537 192.884 222.14 192.767C226.531 191.929 230.453 191.644 234.643 192.532C238.833 193.404 241.766 193.974 242.017 192.298C242.252 190.622 244.548 191.644 247.279 191.56C248.905 191.51 249.274 191.007 249.307 190.605C251.201 191.158 254.654 192.197 257.888 193.186Z" fill="#17466E"/>
<path d="M228.241 209.141C228.375 210.18 228.609 211.219 228.978 212.208C226.162 211.906 224.135 211.638 223.347 211.538C223.19 211.515 223.067 211.498 222.978 211.487C215.548 212.739 207.816 213.174 199.783 212.795C187.733 212.208 182.42 205.873 183.56 200.594C183.811 199.387 184.347 198.465 185.118 197.745C187.766 195.247 193.18 194.946 199.85 193.37C199.861 193.37 199.883 193.365 199.917 193.354C199.939 193.342 199.967 193.337 200.001 193.337C200.057 193.326 200.129 193.309 200.219 193.286C200.263 193.275 200.308 193.264 200.353 193.253C202.314 192.817 209.369 191.326 209.436 192.331C209.487 193.052 205.934 194.527 203.889 195.784C204.012 195.75 204.14 195.722 204.274 195.7C207.906 194.046 210.688 193.739 212.621 194.778C215.252 196.186 216.09 197.795 219.744 197.359C220.112 197.314 220.509 197.247 220.933 197.158C225.174 196.286 224.922 198.448 225.877 199.622C225.995 199.756 226.112 199.873 226.246 199.974C226.833 200.393 227.738 200.879 228.609 201.298C228.587 201.409 228.565 201.515 228.542 201.616C228.542 201.627 228.542 201.633 228.542 201.633C228.498 201.867 228.458 202.119 228.425 202.387C228.38 202.644 228.341 202.923 228.308 203.225C228.09 204.918 227.972 207.029 228.241 209.141Z" fill="#1C8DE7"/>
<path d="M265.899 195.851C264.274 196.689 262.631 197.275 261.776 196.873C260.318 196.219 256.681 195.901 252.24 196.437C250.531 195.717 246.844 193.99 248.838 193.219C251.385 192.231 253.229 193.94 255.626 193.37C256.346 193.203 257.134 193.152 257.888 193.186C261.424 194.275 264.709 195.298 265.413 195.582C265.514 195.633 265.681 195.717 265.899 195.851Z" fill="#1C8DE7"/>
<path d="M228.609 201.297C228.587 201.409 228.565 201.515 228.542 201.616C228.542 201.627 228.542 201.633 228.542 201.633C228.498 201.867 228.458 202.119 228.425 202.387C228.38 202.644 228.341 202.923 228.308 203.225C228.09 204.918 227.972 207.029 228.241 209.141C224.838 208.554 219.09 207.281 216.174 204.951C213.76 203.007 211.699 200.811 209.202 199.487C209.191 199.487 209.185 199.487 209.185 199.487C207.224 198.465 204.995 197.962 202.096 198.566C201.973 198.409 201.878 198.219 201.811 197.996C201.61 197.376 201.71 196.37 203.889 195.784C204.012 195.75 204.14 195.722 204.274 195.7C207.906 194.046 210.688 193.739 212.621 194.778C215.252 196.186 216.09 197.795 219.744 197.359C220.112 197.314 220.509 197.247 220.933 197.158C225.174 196.286 224.922 198.448 225.877 199.622C225.995 199.756 226.112 199.873 226.246 199.973C226.833 200.392 227.738 200.879 228.609 201.297Z" fill="#E49877"/>
<path d="M228.542 201.633C228.498 201.867 228.458 202.119 228.425 202.387C228.38 202.644 228.341 202.923 228.308 203.225C228.09 204.918 227.972 207.029 228.241 209.141C224.838 208.554 219.09 207.281 216.174 204.951C211.866 201.499 208.716 197.208 202.096 198.566C201.973 198.409 201.878 198.219 201.811 197.996C202.129 197.895 202.531 197.778 203.034 197.644C205.665 196.94 210.425 196.102 212.989 198.231C213.777 198.867 214.615 199.571 215.487 200.275C218.738 202.923 222.375 205.689 224.721 205.789C226.984 205.89 227.788 204.247 228.123 203.175C228.241 202.823 228.308 202.538 228.341 202.387C228.352 202.387 228.358 202.381 228.358 202.37C228.408 202.203 228.475 201.934 228.542 201.633Z" fill="#C5614C"/>
<path d="M225.878 199.622C224.989 199.722 223.598 199.689 222.157 198.884C220.682 198.063 220.28 197.694 219.744 197.359C220.112 197.314 220.509 197.247 220.934 197.158C225.174 196.286 224.922 198.448 225.878 199.622Z" fill="#C5614C"/>
<path d="M226.481 210.951L223.347 211.538C223.19 211.515 223.067 211.498 222.978 211.487C215.548 212.739 207.816 213.174 199.783 212.795C187.733 212.208 182.42 205.873 183.56 200.594C183.811 199.387 184.347 198.465 185.118 197.744C186.174 197.862 187.85 198.247 189.208 200.711C191.37 204.582 189.912 208.202 195.124 206.778C200.353 205.353 208.364 204.331 210.945 205.32C212.677 205.968 217.855 207.845 226.481 210.951Z" fill="#17466E"/>
<path d="M271.648 201.817C270.592 202.471 269.251 202.856 267.927 202.068C265.061 200.359 260.017 199.136 252.274 201.515C246.441 203.309 236.939 204.448 230.972 203.744C229.967 203.627 229.062 203.459 228.308 203.225C228.341 202.923 228.38 202.644 228.425 202.387C228.458 202.119 228.498 201.867 228.542 201.633C228.542 201.633 228.542 201.627 228.542 201.616C228.565 201.515 228.587 201.409 228.609 201.297C228.732 200.638 228.85 200.102 228.961 199.689C235.542 199.733 241.196 199.08 245.922 197.728C248.117 197.091 250.263 196.689 252.24 196.437C256.681 195.901 260.318 196.219 261.776 196.873C262.631 197.275 264.274 196.689 265.899 195.851C266.234 196.085 266.687 196.404 267.206 196.839C267.625 197.594 268.279 198.566 269.301 199.705C269.955 200.409 270.609 200.895 271.245 201.197C271.38 201.398 271.514 201.605 271.648 201.817Z" fill="#1C8DE7"/>
<path d="M266.335 211.487C256.078 214.47 238.246 213.18 228.978 212.208C228.609 211.219 228.375 210.18 228.241 209.141C227.972 207.029 228.09 204.918 228.308 203.225C229.062 203.459 229.967 203.627 230.972 203.744C236.939 204.448 246.441 203.309 252.274 201.515C260.017 199.135 265.061 200.359 267.927 202.068C269.251 202.856 270.592 202.471 271.648 201.817C273.692 205.286 273.793 209.309 266.335 211.487Z" fill="#17466E"/>
<path d="M194.956 200.543C200.252 199.314 204.995 198.962 209.185 199.487" stroke="#1C1C1C" stroke-width="0.33519" stroke-linecap="round"/>
<path d="M238.816 122.645C238.581 124.623 237.928 125.779 237.475 126.366L237.458 126.382L237.006 126.868L236.503 127.388C236.57 124.807 236.458 122.762 236.168 121.254C236.157 121.243 236.145 121.232 236.134 121.22C235.531 119.142 234.257 117.768 232.883 116.595C231.799 115.69 231.218 114.913 231.14 114.265C229.531 116.712 227.347 118.064 224.587 118.321C220.682 118.69 219.14 122.276 219.04 123.835C218.721 123.969 218.252 124.556 217.28 124.153C217.196 123.902 216.375 121.539 216.257 121.254C214.783 117.533 214.514 116.494 215.755 113.729C216.056 113.059 216.576 112.506 217.213 112.053C216.676 112.992 215.956 114.466 216.425 115.405C217.196 116.964 220.062 117.131 221.252 116.176C222.442 115.221 221.57 113.846 223.229 114.651C224.788 115.405 228.961 114.383 230.017 112.757C230.168 112.539 230.436 112.455 230.671 112.506C231.375 112.656 232.615 113.092 233.252 114.265C234.157 115.908 233.604 117.148 234.81 116.645C236.017 116.159 235.983 116.293 236.335 117.802C236.671 119.209 237.006 119.059 238.732 118.338C239.151 119.829 239.101 120.265 238.816 122.645Z" fill="#4A4947"/>
<path d="M239.386 126.483C238.95 127.857 237.794 128.712 236.805 128.41C236.235 128.226 235.85 127.69 235.715 127.003C235.397 127.656 235.012 128.243 234.593 128.779C233.369 130.354 231.542 135.114 227.704 134.762C223.866 134.394 221.336 129.634 219.995 128.377C219.906 128.299 219.822 128.209 219.744 128.109C219.593 128.243 219.425 128.343 219.224 128.41C218.235 128.712 217.096 127.857 216.643 126.483C216.207 125.109 216.643 123.734 217.632 123.416C218.034 123.282 218.47 123.366 218.872 123.584C218.855 123.064 218.855 122.595 218.839 122.209C218.839 122.131 218.839 122.047 218.839 121.958C218.939 120.399 220.682 118.69 224.587 118.321C227.347 118.064 229.531 116.712 231.14 114.265C231.218 114.913 231.799 115.69 232.883 116.595C234.257 117.768 235.531 119.142 236.134 121.221C236.246 121.578 236.336 121.958 236.403 122.36C236.503 122.997 236.52 123.6 236.486 124.153C237.023 123.517 237.743 123.215 238.397 123.416C239.386 123.734 239.822 125.109 239.386 126.483Z" fill="#E49877"/>
<path d="M225.777 121.74C224.459 120.377 222.771 120.316 220.716 121.556" stroke="#1C1C1C" stroke-width="0.33519" stroke-linecap="round"/>
<path d="M228.559 121.74C229.866 120.377 231.553 120.316 233.62 121.556" stroke="#1C1C1C" stroke-width="0.33519" stroke-linecap="round"/>
<path d="M225.341 123.567C225.157 123.383 224.922 123.517 224.755 123.667C224.537 123.869 224.252 123.969 223.95 124.003C222.933 124.092 222.218 123.762 221.805 123.014" stroke="#1C1C1C" stroke-width="0.33519" stroke-linecap="round"/>
<path d="M232.464 123.014C232.051 123.762 231.33 124.092 230.302 124.003C230.017 123.969 229.732 123.869 229.497 123.667C229.347 123.517 229.112 123.383 228.911 123.567" stroke="#1C1C1C" stroke-width="0.33519" stroke-linecap="round"/>
<path d="M227.637 126.936C227.593 127.058 227.274 127.081 226.682 127.003C225.777 126.885 226.129 126.081 226.531 125.025C226.799 124.31 226.894 123.589 226.816 122.863" stroke="#1C1C1C" stroke-width="0.33519" stroke-linecap="round"/>
<path d="M231.341 130.874C231.844 131.662 230.587 131.377 229.112 130.254C227.654 129.131 226.347 129.935 225.19 130.874C224.034 131.813 223.229 131.611 223.933 130.874C224.621 130.137 225.743 128.394 226.179 128.142C226.47 127.986 227.151 127.924 228.224 127.958C228.777 128.025 230.922 130.204 231.341 130.874Z" fill="#7B767A"/>
<path d="M225.626 130.79C227.224 130.12 228.431 130.148 229.246 130.874C229 131.388 228.431 131.645 227.537 131.645C226.179 131.645 225.66 130.975 225.626 130.874V130.79Z" fill="#C5614C"/>
<path d="M239.771 139.891C238.196 143.595 234.475 150.382 228.492 149.879C222.291 149.36 219.123 143.326 217.95 140.41C219.459 139.74 220.816 139.22 221.838 138.868V134.863C222.062 135.086 222.285 135.299 222.509 135.5C222.894 137.326 224.721 145.237 228.19 145.405C231.039 145.539 233.335 138.483 234.19 135.433C234.313 135.332 234.43 135.22 234.542 135.097V137.93C236.039 138.388 237.782 139.041 239.771 139.891Z" fill="#E49877"/>
<path d="M234.19 135.433C233.335 138.483 231.039 145.539 228.19 145.404C224.721 145.237 222.894 137.326 222.509 135.5C223.699 136.572 224.972 137.326 226.816 137.561C229.682 137.913 230.419 137.662 232.464 136.572C233.151 136.203 233.704 135.852 234.19 135.433Z" fill="#C5614C"/>
<path d="M211.531 162.482L211.448 163.371C210.224 170.343 206.872 177.549 205.716 179.963C204.476 182.527 200.822 187.169 198.208 189.264C196.476 190.661 192.258 193.549 185.554 197.929C185.599 198.096 185.632 198.298 185.655 198.532C185.47 198.432 185.319 198.298 185.219 198.113C184.314 196.588 187.146 195.867 191.588 191.912C196.029 187.957 198.543 185.711 201.174 181.823C203.805 177.918 201.978 178.37 200.353 176.979C198.727 175.588 200.453 173.242 201.677 165.533C202.314 161.611 203.118 157.605 203.772 154.622C204.459 152.527 205.28 150.633 206.286 149.108C207.023 148.002 207.945 146.98 208.95 146.041C211.788 150.086 212.649 155.566 211.531 162.482Z" fill="#C5614C"/>
<path d="M201.677 165.533C200.453 173.242 198.727 175.588 200.353 176.979C201.978 178.37 203.805 177.918 201.174 181.823C198.543 185.711 196.029 187.957 191.588 191.912C187.146 195.867 184.314 196.588 185.219 198.113C185.319 198.298 185.47 198.432 185.655 198.532C185.755 199.253 185.755 200.476 184.984 201.197C183.828 202.286 182.638 204.113 182.085 205.32C181.716 206.124 181.051 206.163 180.09 205.437L178.549 204.968L177.677 204.716C176.672 204.013 176.012 203.594 175.699 203.459C175.247 203.258 174.426 202.504 174.811 201.934C175.18 201.365 177.476 198.901 178.364 197.376C179.253 195.867 180.912 194.895 182.923 193.253C184.917 191.611 196.18 178.706 198.543 175.639C200.403 173.209 201.14 162.583 203.772 154.622C203.118 157.605 202.314 161.611 201.677 165.533Z" fill="#E49877"/>
<path d="M249.307 190.605C249.274 191.007 248.905 191.51 247.279 191.56C244.548 191.644 242.252 190.622 242.017 192.298C241.766 193.974 238.833 193.404 234.643 192.532C230.453 191.644 226.531 191.929 222.14 192.767C221.537 192.884 220.933 192.968 220.364 193.035C218.604 193.219 217.062 193.152 216.157 192.8C215.202 192.415 214.95 191.728 215.805 190.705C215.839 190.672 215.867 190.638 215.889 190.605C214.665 190.689 213.727 190.705 213.308 190.622C212.822 190.504 212.453 190.471 212.185 190.387C211.867 190.303 211.699 190.136 211.632 189.733C211.498 189.03 211.699 187.605 212.068 184.454C212.537 180.482 212.286 173.024 212.001 167.812C211.889 165.611 211.772 163.711 211.649 162.114L211.632 161.644C211.632 161.622 211.638 161.594 211.649 161.561C211.682 161.309 211.8 160.471 211.867 159.265C212.034 156.298 211.9 151.12 209.587 147.064C209.52 146.941 209.453 146.818 209.386 146.695C209.252 146.472 209.107 146.254 208.95 146.041C211.632 143.578 215.068 141.717 217.95 140.41C219.123 143.326 222.291 149.36 228.492 149.879C234.475 150.382 238.196 143.594 239.771 139.891C242.151 140.896 245 142.27 247.548 143.93C246.81 146.829 245.402 153.365 246.173 158.443C246.162 159.136 246.151 160.058 246.14 161.209C246.106 167.98 246.324 185.175 249.089 189.918C249.123 189.974 249.157 190.03 249.19 190.085C249.279 190.242 249.319 190.415 249.307 190.605Z" fill="#FFFCFF"/>
<path d="M177.191 202.001L177.359 200.024L179.068 197.929" stroke="#C5614C" stroke-width="0.33519" stroke-linecap="round"/>
<path d="M176.303 202.001L177.493 202.387C178.13 201.929 178.806 201.884 179.521 202.253L177.845 204.499" stroke="#C5614C" stroke-width="0.33519" stroke-linecap="round"/>
<path d="M178.984 202.957C179.51 202.521 180.23 202.487 181.146 202.856L179.303 204.817" stroke="#C5614C" stroke-width="0.33519" stroke-linecap="round"/>
<path d="M180.359 203.694C181.163 203.303 181.778 203.32 182.202 203.744L180.359 205.32" stroke="#C5614C" stroke-width="0.33519" stroke-linecap="round"/>
<path d="M181.833 203.443C182.035 203.197 182.308 203.102 182.655 203.158L182.102 205.085" stroke="#C5614C" stroke-width="0.33519" stroke-linecap="round"/>
<path d="M183.09 200.426C182.135 201.331 181.029 202.286 180.375 202.823C179.923 202.756 179.32 202.756 178.901 203.091H178.884L179.403 202.387C178.778 202.063 178.163 202.063 177.56 202.387V202.102C178.163 201.923 178.621 201.415 178.934 200.577C179.794 200.074 180.794 199.292 181.934 198.23C182.621 197.594 182.705 196.957 182.571 196.437C182.99 196.219 183.526 196.119 183.811 196.622C184.297 197.51 184.532 199.068 183.09 200.426Z" fill="#C5614C"/>
<path d="M279.273 197.761C278.558 198.744 277.636 198.784 276.508 197.879C276.608 197.979 277.865 199.286 276.558 200.359C275.972 200.845 275.05 201.381 273.994 201.566C273.407 201.666 272.754 201.666 272.1 201.499C271.821 201.432 271.536 201.331 271.245 201.197C270.609 200.895 269.955 200.409 269.301 199.705C268.279 198.566 267.625 197.594 267.206 196.839C266.888 196.27 266.72 195.817 266.62 195.465C266.542 195.175 266.502 194.951 266.502 194.795C266.151 194.409 254.754 182.007 253.447 178.991C252.994 177.951 252.089 175.94 251.017 173.477C250.894 173.186 250.765 172.896 250.631 172.605C250.346 171.901 250.028 171.181 249.709 170.443C248.469 167.46 247.162 164.175 246.14 161.209C246.151 160.058 246.162 159.136 246.173 158.443C245.402 153.365 246.793 146.863 247.547 143.946C247.547 143.935 247.547 143.93 247.547 143.93C250.352 144.712 252.564 146.723 254.184 149.963C254.603 150.801 254.972 151.756 255.257 152.829C257.184 160.136 257.905 169.119 260.117 172.438C261.592 174.627 265.173 180.655 270.86 190.521C272.581 192.309 273.899 193.488 274.815 194.057C275.731 194.627 276.541 195.18 277.245 195.717L279.273 197.761Z" fill="#E49877"/>
<path d="M277.413 200.342C277.402 200.342 277.391 200.348 277.379 200.359L276.324 200.024C274.849 199.8 273.983 200.096 273.726 200.912C273.905 201.068 274.134 201.23 274.413 201.398C274.301 201.398 274.189 201.392 274.078 201.381L273.96 201.314C273.541 201.18 273.19 201.13 272.905 201.147C271.111 200.527 270.273 198.918 269.603 197.476C268.731 195.65 269.67 194.996 270.86 195.918C272.05 196.856 273.022 196.689 274.346 196.756C275.586 196.839 276.407 197.761 276.491 197.862L277.396 198.633C276.782 198.677 276.385 198.918 276.206 199.353C276.519 199.744 276.921 200.074 277.413 200.342Z" fill="#C5614C"/>
<path d="M266.536 194.778C266.184 194.393 254.771 182.007 253.464 179.007C252.324 176.426 248.469 168.03 246.123 161.225C246.134 160.075 246.146 159.147 246.157 158.443C245.369 153.382 246.777 146.846 247.514 143.93C250.319 144.712 252.531 146.723 254.151 149.963C254.838 152.829 256.062 158.259 256.765 163.538C257.771 170.946 259.363 171.248 258.173 173.359C257 175.471 254.218 175.505 255.291 178.052C256.363 180.566 266.218 194.342 266.536 194.778Z" fill="#C5614C"/>
<path d="M276.005 199.32C276.329 198.549 277.123 198.37 278.385 198.784L279.424 199.32C279.692 199.471 279.776 199.823 279.592 200.074C279.374 200.376 278.989 200.661 278.301 200.627C277.408 200.594 276.642 200.158 276.005 199.32Z" fill="#E49877"/>
<path d="M270.407 202.487C270.653 201.906 271.257 201.772 272.218 202.085L273.005 202.487C273.223 202.605 273.29 202.873 273.156 203.057C272.988 203.292 272.687 203.51 272.15 203.493C271.48 203.459 270.899 203.124 270.407 202.487Z" fill="#C5614C"/>
<path d="M271.38 201.851C271.704 201.08 272.497 200.895 273.759 201.297L274.799 201.851C275.083 201.985 275.167 202.337 274.983 202.588C274.765 202.89 274.38 203.191 273.676 203.158C272.793 203.113 272.028 202.677 271.38 201.851Z" fill="#E49877"/>
<path d="M273.525 200.912C273.782 200.085 274.648 199.784 276.123 200.007L277.363 200.392C277.698 200.51 277.832 200.845 277.664 201.13C277.463 201.448 277.061 201.8 276.273 201.867C275.268 201.957 274.352 201.638 273.525 200.912Z" fill="#E49877"/>
<path d="M249.307 190.605C249.274 191.007 248.905 191.51 247.279 191.56C244.548 191.644 242.251 190.622 242.017 192.298C241.765 193.974 238.833 193.404 234.643 192.532C230.453 191.644 226.531 191.929 222.14 192.767C221.537 192.884 220.933 192.968 220.364 193.035L216.157 192.8C215.202 192.415 214.95 191.728 215.805 190.705C215.838 190.672 215.866 190.638 215.889 190.605C214.665 190.689 213.727 190.705 213.308 190.622C212.822 190.504 212.453 190.471 212.185 190.387C211.866 190.303 211.699 190.136 211.632 189.733C212.788 189.03 214.129 187.974 214.967 186.516C216.727 183.482 215.487 181.873 215.386 178.991C215.269 176.108 213.04 171.566 212.269 168.952C212.185 168.633 212.084 168.248 212.001 167.812C211.889 165.611 211.771 163.711 211.649 162.114L211.632 161.644C211.632 161.622 211.637 161.594 211.649 161.561C211.682 161.309 211.799 160.471 211.866 159.265C212.704 159.801 213.911 160.823 214.481 162.482C215.419 165.181 219.123 165.315 222.71 164.41C226.296 163.522 232.263 165.667 237.157 165.633C240.419 165.622 243.123 164.533 245.268 162.365C244.285 168.857 243.732 173.298 243.609 175.689C243.408 179.275 245.101 187.521 248.737 189.7C248.86 189.767 248.978 189.84 249.089 189.918C249.123 189.974 249.156 190.029 249.19 190.085C249.279 190.242 249.318 190.415 249.307 190.605Z" fill="#CBE8F9"/>
<path d="M193.9 234.414L171.577 273.397C170.27 273.363 168.51 273.319 166.297 273.263C163.13 273.179 158.705 273.062 153.594 272.928C136.633 272.492 112.047 271.838 99.8125 271.486C84.7624 271.051 68.7403 268.386 58.0142 268.352C54.6456 268.336 51.7965 268.587 49.668 269.241C46.2826 270.296 42.3944 270.866 38.8916 271.168C35.104 271.514 31.6403 271.62 28.5007 271.486L85.9691 233.777C86.7177 233.777 87.7624 233.766 89.1032 233.744C91.4327 233.71 94.9355 233.66 99.2929 233.61C119.186 233.375 156.56 233.057 178.012 233.493C182.269 233.576 185.889 233.694 188.621 233.844C191.319 233.995 193.163 234.18 193.9 234.414Z" fill="#BBCD67"/>
<path opacity="0.2" d="M99.2929 233.61L58.0142 268.352C54.6455 268.336 51.7964 268.587 49.668 269.241C46.2825 270.296 42.3943 270.866 38.8916 271.168L89.1031 233.744C91.4327 233.71 94.9354 233.66 99.2929 233.61Z" fill="#3F6A3A"/>
<path opacity="0.2" d="M188.621 233.844L166.297 273.263C163.13 273.179 158.705 273.062 153.594 272.928L178.012 233.493C182.269 233.576 185.889 233.694 188.621 233.844Z" fill="#3F6A3A"/>
<path d="M168.862 249.397C186.929 248.794 182.772 252.548 176.672 255.9C170.588 259.235 142.13 259.671 134.371 260.811C126.611 261.95 109.969 260.308 103.734 260.107C97.5165 259.922 71.9247 257.928 72.7795 253.068C73.3381 249.839 80.5 249.459 94.2652 251.928C131.952 250.632 156.817 249.788 168.862 249.397Z" fill="#1B1B1B"/>
<path d="M182.956 211.018L183.995 211.789C184.431 212.124 184.666 212.677 184.565 213.23L184.163 215.56C183.208 216.649 181.85 216.666 179.94 217.102C177.627 217.621 172.649 216.85 163.498 214.135C154.331 211.42 154.532 208.336 152.32 204.549C150.091 200.744 150.359 193.756 150.191 188.996C150.024 184.236 148.934 179.862 146.354 178.907C145.365 178.538 144.225 179.393 143.186 180.599C142.314 181.639 141.527 182.896 140.974 183.868C140.884 184.024 140.801 184.169 140.722 184.303C140.521 184.169 140.354 184.002 140.22 183.801C140.186 183.767 140.158 183.728 140.136 183.683C137.923 180.248 140.756 168.03 142.281 162.767C147.275 165.365 152.605 167.812 152.906 181.437C153.119 191.069 154.18 200.046 156.091 208.37C166.303 212.828 172.66 214.867 175.163 214.487C177.666 214.107 179.264 213.599 179.956 212.962L179.118 211.99C179.085 211.923 179.102 211.856 179.169 211.822L182.118 210.884C182.403 210.783 182.722 210.834 182.956 211.018ZM135.074 158.544C119.924 167.896 108.159 161.175 104.069 158.091C108.159 155.913 111.795 153.131 113.538 151.723V144.265C113.823 144.248 114.142 144.198 114.443 144.131C114.393 146.293 114.628 151.488 118.047 152.108C121.08 152.661 124.365 147.768 126.091 144.717C126.912 144.064 127.616 143.108 128.086 142.036V153.08C129.946 154.941 132.426 156.818 135.074 158.544ZM94.399 183.046C92.3879 179.359 91.9856 175.538 89.4047 177.985C86.8237 180.415 87.0248 194.912 86.5891 199.973C86.1701 205.035 84.5109 207.297 82.1646 209.56C79.8182 211.806 80.3378 210.616 78.578 214.001C77.0026 217.001 71.6899 221.945 70.5334 222.984C72.2317 221.286 76.9914 214.387 84.8126 202.286C85.2036 196.923 85.7846 189.124 86.5555 178.89C87.5444 165.952 92.2705 163.103 97.8682 160.806C98.8738 180.471 97.7174 187.884 94.399 183.046Z" fill="#B6524A"/>
<path d="M97.1813 191.175L96.9635 191.192L91.282 210.448C85.3268 217.029 80.3604 222.398 76.3828 226.554C75.3437 227.643 74.4052 228.616 73.6175 229.403C72.6957 230.308 71.9918 230.979 71.5728 231.314C70.1482 232.453 69.4611 232.202 68.8913 231.515C68.3382 230.828 67.9025 229.705 66.9807 229.051C65.1204 227.761 64.7684 228.347 65.4388 227.124C66.1092 225.9 64.8355 223.303 66.1762 222.783C67.4835 222.28 70.1482 223.118 70.3158 223.169C70.327 223.169 70.3438 223.157 70.3661 223.135C70.3661 223.135 70.3829 223.118 70.3996 223.102C70.4443 223.068 70.489 223.029 70.5337 222.984C71.6901 221.945 77.0029 217.001 78.5783 214.001C80.338 210.616 79.8185 211.806 82.1648 209.56C84.5111 207.297 86.1703 205.035 86.5893 199.973C87.0251 194.912 86.824 180.415 89.4049 177.985C91.9859 175.538 92.3881 179.359 94.3993 183.046C94.3993 183.046 94.4048 183.052 94.416 183.063C94.4998 183.298 95.7903 186.801 97.1813 191.175Z" fill="#64312C"/>
<path d="M70.5335 222.984C70.4888 223.029 70.4441 223.068 70.3994 223.102C70.4329 223.068 70.4776 223.029 70.5335 222.984Z" stroke="#1C1C1C" stroke-width="0.33519" stroke-linecap="round"/>
<path d="M184.163 215.56L184.096 215.912C182.811 217.577 181.185 218.873 179.219 219.8C178.213 220.269 177.091 220.621 175.867 220.688C174.409 220.772 171.275 220.47 167.638 220.001C167.169 219.945 166.694 219.884 166.214 219.817C163.532 219.465 160.666 219.063 158.069 218.66C154.728 218.158 151.7 217.677 148.985 217.219C145.823 212.56 143.739 202.918 142.734 188.292H142.633C142.946 186.605 143.208 185.214 143.421 184.119C142.231 184.722 141.359 184.739 140.722 184.303C140.801 184.169 140.884 184.024 140.974 183.868C141.527 182.896 142.315 181.639 143.186 180.599C144.225 179.393 145.365 178.538 146.354 178.907C148.935 179.862 150.024 184.236 150.192 188.996C150.359 193.756 150.091 200.744 152.32 204.549C154.532 208.336 154.331 211.42 163.499 214.135C172.649 216.85 177.627 217.621 179.94 217.102C181.85 216.666 183.208 216.649 184.163 215.56Z" fill="#64312C"/>
<path d="M132.544 132.634C132.343 135.55 131.756 137.879 131.035 139.706C130.097 142.086 128.924 143.611 128.086 144.483V142.036C128.337 141.466 128.505 140.846 128.605 140.243C129.058 137.259 130.432 134.561 131.655 133.137C131.655 133.125 131.661 133.12 131.672 133.12C131.723 133.069 132.108 132.734 132.544 132.634Z" fill="#B6524A"/>
<path d="M132.125 124.355C130.65 126.852 126.46 122.796 124.65 122.662C122.857 122.511 125.22 126.215 124.131 127.019C123.024 127.841 121.03 125.461 121.08 126.617C121.114 127.773 119.421 129.282 117.695 128.444C115.985 127.623 116.421 128.863 114.494 131.276C112.566 133.706 112.935 128.729 112.818 127.338C112.701 125.93 110.388 127.606 108.494 128.125C107.606 128.36 107.371 128.008 107.354 127.539C109.148 125.695 110.002 123.852 110.036 120.399C110.069 115.908 115.801 112.556 120.142 114.232C124.499 115.908 126.192 116.83 129.862 117.416C132.276 117.802 134.169 119.746 134.974 122.209C133.047 120.265 129.41 119.377 128.304 119.662C126.896 120.031 133.616 121.874 132.125 124.355Z" fill="#4C3133"/>
<path d="M131.035 139.706C131.756 137.879 132.343 135.55 132.544 132.634C133.03 132.5 133.583 132.701 133.633 134.075C133.75 136.237 132.661 139.522 131.035 139.706Z" fill="#B6524A"/>
<path fill-rule="evenodd" clip-rule="evenodd" d="M135.276 126.349C134.639 130.137 133.717 131.192 132.56 132.248C132.438 132.349 132.32 132.455 132.209 132.567C132.03 132.723 131.851 132.907 131.672 133.12C131.661 133.12 131.655 133.125 131.655 133.137C130.449 134.561 129.058 137.259 128.605 140.243C128.505 140.846 128.337 141.466 128.086 142.036C127.616 143.108 126.912 144.064 126.091 144.717C124.868 145.689 123.376 145.974 122.019 144.902C119.27 143.628 117.052 143.282 115.365 143.863C115.08 143.963 114.762 144.064 114.443 144.131C114.142 144.198 113.823 144.248 113.538 144.265C111.494 144.449 109.801 143.477 111.946 139.254C105.689 134.293 103.561 130.947 105.561 129.215C106.231 128.628 106.835 128.092 107.354 127.539C107.371 128.008 107.606 128.36 108.494 128.125C108.879 128.025 109.298 127.857 109.7 127.69C109.678 127.533 109.661 127.371 109.65 127.204C109.617 126.751 109.633 126.215 109.902 125.829C110.203 125.377 110.673 125.427 111.159 125.394C111.728 125.343 111.963 124.891 112.114 124.388C112.131 124.338 112.164 124.304 112.198 124.287C112.119 124.12 112.064 123.93 112.03 123.718C112.952 125.209 114.846 124.522 116.253 123.969C118.063 123.232 117.125 123.198 118.65 124.12C119.689 124.723 120.996 125.645 121.566 124.924C120.829 125.461 120.024 125.528 119.237 125.813C118.147 126.215 117.041 127.003 115.834 126.299C114.628 125.611 114.812 125.695 113.17 125.243C112.835 125.142 112.566 124.941 112.382 124.639C112.265 124.991 112.097 125.327 111.779 125.544C111.36 125.813 110.874 125.628 110.438 125.796C109.985 125.98 109.969 126.6 109.969 127.019C109.98 127.198 109.997 127.377 110.019 127.556C111.46 126.935 112.734 126.299 112.818 127.338C112.935 128.729 112.566 133.706 114.494 131.276C116.421 128.863 115.985 127.623 117.695 128.444C119.421 129.282 121.114 127.773 121.08 126.617C121.03 125.461 123.024 127.841 124.13 127.019C125.22 126.215 122.857 122.511 124.65 122.662C126.46 122.796 130.65 126.852 132.125 124.355C133.549 121.975 127.449 120.198 128.169 119.729C127.745 119.438 127.304 119.181 126.845 118.958C126.51 118.802 126.169 118.662 125.823 118.539C125.505 118.422 125.186 118.321 124.851 118.304C124.499 118.304 124.231 118.405 124.03 118.707C123.879 118.941 123.745 119.159 123.46 119.276C123.125 119.41 122.756 119.377 122.404 119.276C122.549 119.399 122.717 119.528 122.907 119.662C124.415 120.634 123.276 122.595 122.371 124.019C122.119 124.422 121.851 123.533 121.566 123.751C121.851 123.382 121.952 122.896 121.751 122.343C121.114 120.667 120.192 120.785 120.36 119.075C120.494 117.667 119.522 117.198 119.17 117.081C119.471 117.031 119.79 117.031 120.142 117.148C121.063 117.416 121.298 118.053 121.868 118.723C121.879 118.723 121.89 118.729 121.901 118.74C122.421 118.975 123.259 119.276 123.644 118.707C123.829 118.438 123.946 118.204 124.265 118.07C124.533 117.952 124.834 117.952 125.119 118.003C125.823 118.103 126.527 118.422 127.147 118.74C127.661 118.997 128.153 119.293 128.622 119.628C129.979 119.528 133.197 120.416 134.974 122.209C135.393 123.483 135.527 124.908 135.276 126.349Z" fill="#322731"/>
<path d="M118.65 124.12C117.125 123.198 118.064 123.232 116.254 123.969C114.846 124.522 112.952 125.209 112.03 123.718C111.812 122.444 112.215 120.584 113.22 118.757C114.309 116.796 116.019 117.014 117.058 117.383C117.544 117.567 118.08 117.55 118.55 117.316C118.717 117.215 118.935 117.131 119.17 117.081C119.522 117.198 120.494 117.667 120.36 119.075C120.192 120.785 121.114 120.667 121.751 122.343C122.371 124.019 120.192 125.042 118.65 124.12Z" fill="#593C3F"/>
<path d="M126.091 144.717C124.365 147.768 121.08 152.661 118.047 152.108C114.628 151.488 114.393 146.293 114.444 144.131C114.762 144.064 115.08 143.963 115.365 143.863C117.053 143.282 119.27 143.628 122.019 144.902C123.376 145.974 124.868 145.689 126.091 144.717Z" fill="#64312C"/>
<path fill-rule="evenodd" clip-rule="evenodd" d="M146.538 233.124C146.035 233.66 145.443 234.191 144.761 234.716C144.672 234.783 144.583 234.85 144.493 234.917C144.141 235.185 143.756 235.437 143.37 235.688C143.27 235.744 143.175 235.805 143.086 235.872C142.873 236.006 142.655 236.135 142.432 236.258C142.231 236.381 142.024 236.498 141.812 236.61C141.622 236.71 141.426 236.811 141.225 236.911C140.756 237.157 140.27 237.392 139.767 237.615C139.6 237.694 139.432 237.772 139.264 237.85C139.164 237.895 139.058 237.939 138.946 237.984C138.734 238.085 138.516 238.18 138.292 238.269C138.281 238.269 138.27 238.269 138.259 238.269C138.007 238.37 137.756 238.487 137.505 238.571C137.303 238.649 137.102 238.727 136.901 238.805C136.79 238.85 136.672 238.889 136.549 238.923C136.326 239.012 136.091 239.096 135.845 239.174C135.544 239.286 135.231 239.392 134.907 239.492C134.683 239.571 134.454 239.643 134.22 239.71C134.13 239.744 134.041 239.772 133.952 239.794C133.695 239.872 133.438 239.945 133.181 240.012C132.879 240.101 132.572 240.191 132.259 240.28C132.259 240.28 132.253 240.28 132.242 240.28C131.929 240.37 131.611 240.453 131.287 240.532C130.963 240.621 130.633 240.705 130.298 240.783C130.008 240.85 129.711 240.917 129.41 240.984C129.309 241.006 129.214 241.029 129.125 241.051C128.505 241.185 127.851 241.319 127.198 241.437C127.175 241.448 127.153 241.453 127.13 241.453C126.795 241.52 126.46 241.582 126.125 241.638C125.399 241.772 124.656 241.895 123.896 242.006C123.427 242.073 122.952 242.14 122.471 242.207C121.745 242.308 121.008 242.397 120.259 242.476C119.51 242.554 118.745 242.626 117.963 242.693C117.55 242.727 117.136 242.761 116.723 242.794C115.952 242.85 115.17 242.895 114.376 242.928C113.829 242.962 113.276 242.984 112.717 242.995C112.326 243.018 111.93 243.029 111.527 243.029C111.08 243.04 110.634 243.051 110.187 243.062C109.784 243.062 109.393 243.062 109.013 243.062C108.846 243.062 108.678 243.057 108.511 243.045C108.231 243.045 107.952 243.04 107.673 243.029C106.98 243.006 106.321 242.973 105.695 242.928C105.46 242.917 105.231 242.9 105.008 242.878C104.784 242.867 104.561 242.85 104.338 242.828C103.902 242.783 103.477 242.733 103.064 242.677C102.885 242.654 102.712 242.632 102.544 242.61C101.729 242.498 100.974 242.364 100.282 242.207C100.136 242.174 99.9968 242.14 99.8627 242.107C99.8292 242.096 99.7901 242.085 99.7454 242.073C99.6449 242.051 99.5443 242.029 99.4437 242.006C99.3879 241.995 99.332 241.978 99.2761 241.956C99.075 241.911 98.8795 241.861 98.6896 241.805C98.589 241.772 98.494 241.738 98.4047 241.705C98.2371 241.66 98.0806 241.61 97.9354 241.554C97.8013 241.52 97.684 241.487 97.5667 241.437C96.1421 240.934 95.0695 240.347 94.2483 239.761C94.2036 239.727 94.1589 239.694 94.1142 239.66C94.0248 239.593 93.941 239.526 93.8628 239.459C93.6114 239.258 93.3936 239.057 93.1924 238.856C93.0584 238.721 92.9355 238.587 92.8237 238.453C92.807 238.437 92.7902 238.403 92.7567 238.37C92.6226 238.202 92.5053 238.046 92.4047 237.9C92.36 237.833 92.3154 237.761 92.2707 237.682C92.226 237.615 92.1869 237.543 92.1533 237.465C92.0025 237.196 91.902 236.945 91.8349 236.744C91.8126 236.688 91.7958 236.638 91.7846 236.593C91.7679 236.543 91.7679 236.492 91.7511 236.442C91.7344 236.392 91.7344 236.342 91.7176 236.308C91.7064 236.252 91.7008 236.208 91.7008 236.174C91.6897 236.129 91.6841 236.096 91.6841 236.073C91.7288 235.962 91.7958 235.805 91.8852 235.604C92.1031 235.135 92.4718 234.347 93.0584 233.241C93.2762 232.839 93.7455 231.582 94.3488 229.839C94.5053 229.392 94.6673 228.917 94.8349 228.414C95.6058 226.135 96.5108 223.32 97.3656 220.42C98.7901 215.644 100.114 210.7 100.516 207.85C100.539 207.661 100.561 207.482 100.583 207.314C100.935 203.979 98.9912 196.839 97.1812 191.175C95.7902 186.801 94.4997 183.298 94.4159 183.063C94.4047 183.052 94.3991 183.046 94.3991 183.046C97.7175 187.884 98.8739 180.471 97.8683 160.806C98.9074 160.371 99.98 159.969 101.053 159.516C102.075 159.097 103.081 158.611 104.069 158.091C108.159 161.175 119.924 167.896 135.074 158.544C137.153 159.918 139.315 161.192 141.376 162.298C141.678 162.455 141.979 162.611 142.281 162.767C140.756 168.03 137.924 180.248 140.136 183.683C140.158 183.728 140.186 183.767 140.22 183.801C140.354 184.002 140.521 184.169 140.722 184.303C141.359 184.739 142.231 184.722 143.421 184.119C143.208 185.214 142.946 186.605 142.633 188.292C141.711 193.286 140.22 201.7 139.482 207.85C139.231 210.012 139.063 211.89 139.046 213.247C139.013 215.308 139.633 217.856 140.538 220.42C141.208 222.364 142.046 224.325 142.868 226.102C143.538 227.526 144.192 228.833 144.778 229.939C145.097 230.543 145.382 231.079 145.633 231.532C145.666 231.599 145.7 231.66 145.734 231.716C145.923 232.051 146.08 232.331 146.203 232.554C146.259 232.655 146.315 232.744 146.37 232.822C146.393 232.867 146.415 232.906 146.437 232.939C146.449 232.962 146.46 232.979 146.471 232.99C146.504 233.046 146.527 233.09 146.538 233.124ZM139.7 185.359C139.711 185.326 139.722 185.292 139.734 185.259C139.722 185.292 139.711 185.326 139.7 185.359ZM106.382 205.303C106.332 205.253 106.265 205.219 106.215 205.186C106.27 205.219 106.326 205.258 106.382 205.303ZM106.6 205.588C106.555 205.51 106.511 205.443 106.466 205.387C106.511 205.443 106.555 205.51 106.6 205.588ZM132.276 206.342C132.253 206.655 132.248 206.973 132.259 207.297C132.259 206.973 132.264 206.655 132.276 206.342ZM132.661 203.744C132.583 204.024 132.521 204.303 132.477 204.582C132.533 204.303 132.594 204.024 132.661 203.744Z" fill="#FB7762"/>
<path d="M94.3153 255.414C95.0192 256.989 85.7177 253.487 82.215 250.151C81.5781 249.548 80.8407 249.029 80.0697 248.626C79.7681 248.459 79.4608 248.308 79.148 248.174C78.8575 248.051 78.567 247.934 78.2765 247.822C78.2318 247.755 78.1871 247.688 78.1424 247.621C77.5726 246.833 76.9357 246.029 76.1648 245.274C73.2821 242.358 69.4274 238.453 68.8073 234.263C68.6733 233.358 68.69 232.437 68.8911 231.515C69.461 232.202 70.1481 232.453 71.5727 231.314C71.9917 230.979 72.6956 230.308 73.6173 229.403C74.405 228.615 75.3436 227.643 76.3826 226.554C82.4664 226.403 90.8629 228.766 94.3489 229.839C93.7455 231.582 93.2762 232.839 93.0584 233.241C92.4718 234.347 92.1031 235.135 91.8852 235.604C91.7958 235.805 91.7288 235.962 91.6841 236.073C91.6841 236.096 91.6897 236.129 91.7009 236.174C91.7009 236.208 91.7064 236.252 91.7176 236.308C91.7344 236.342 91.7344 236.392 91.7511 236.442C91.7679 236.492 91.7679 236.543 91.7846 236.593C91.7958 236.638 91.8126 236.688 91.8349 236.744C91.902 236.945 92.0025 237.196 92.1534 237.465C92.1869 237.543 92.226 237.615 92.2707 237.682C92.3154 237.761 92.3601 237.833 92.4047 237.9C92.5053 238.046 92.6226 238.202 92.7567 238.37C93.0751 239.626 93.645 241.604 94.3153 243.196C95.3879 245.71 93.6114 253.855 94.3153 255.414Z" fill="#145769"/>
<path d="M165.929 232.219C159.392 236.208 160.13 238.554 162.828 242.107C163.968 243.598 164.068 245.425 163.834 247.068C163.364 247.788 162.728 248.543 161.856 249.263C161.8 249.308 161.75 249.353 161.705 249.397C161.571 249.498 161.471 249.582 161.404 249.649C161.348 249.682 161.309 249.71 161.286 249.732C160.532 250.319 159.61 250.889 158.504 251.408C153.365 253.889 148.247 255.246 143.152 255.481C143.689 252.297 144.063 249.012 144.275 245.626C144.543 241.52 142.147 238.437 142.432 236.258C142.655 236.135 142.873 236.006 143.085 235.872C143.175 235.805 143.27 235.744 143.37 235.688C143.756 235.437 144.141 235.185 144.493 234.917C144.583 234.85 144.672 234.783 144.761 234.716C145.443 234.191 146.035 233.66 146.538 233.124C146.527 233.09 146.504 233.046 146.471 232.99C146.46 232.979 146.448 232.962 146.437 232.939C146.415 232.906 146.393 232.867 146.37 232.822C146.314 232.744 146.259 232.655 146.203 232.554C148.733 231.867 152.32 231.096 154.951 231.347C159.426 231.783 162.744 231.448 164.035 227.275C164.772 224.861 166.23 223.152 167.454 221.694C169.364 225.23 169.767 229.872 165.929 232.219Z" fill="#145769"/>
<path d="M163.834 247.068C163.789 247.302 163.744 247.531 163.7 247.755C163.42 249.051 163.001 250.196 162.443 251.191C153.985 258.654 138.633 260.973 116.388 258.146C103.483 261.565 87.7958 254.408 84.3601 254.425C81.6283 254.425 80.6395 251.224 78.2764 247.822C79.6842 248.325 81.092 249.079 82.2149 250.151C85.7176 253.487 95.0191 256.989 94.3152 255.414C93.6113 253.855 95.3878 245.71 94.3152 243.196C93.6448 241.604 93.075 239.627 92.7566 238.37C92.7901 238.403 92.8069 238.437 92.8236 238.453C92.9354 238.587 93.0583 238.722 93.1923 238.856C93.3935 239.057 93.6113 239.258 93.8627 239.459C93.9409 239.526 94.0247 239.593 94.1141 239.66C94.1588 239.694 94.2035 239.727 94.2482 239.761C95.0694 240.347 96.142 240.934 97.5666 241.437C97.6839 241.487 97.8012 241.52 97.9353 241.554C98.0805 241.61 98.237 241.66 98.4046 241.705C98.4939 241.738 98.5889 241.772 98.6895 241.805C98.8794 241.861 99.0749 241.911 99.276 241.956C99.3319 241.978 99.3878 241.995 99.4436 242.006C99.5442 242.029 99.6448 242.051 99.7453 242.073C99.79 242.085 99.8291 242.096 99.8626 242.107C99.9967 242.14 100.136 242.174 100.282 242.208C100.974 242.364 101.729 242.498 102.544 242.61C102.712 242.632 102.885 242.654 103.064 242.677C103.477 242.733 103.902 242.783 104.337 242.828C104.561 242.85 104.784 242.867 105.008 242.878C105.231 242.9 105.46 242.917 105.695 242.928C106.321 242.973 106.98 243.006 107.673 243.029C107.952 243.04 108.231 243.045 108.511 243.045C108.678 243.057 108.846 243.062 109.013 243.062C109.393 243.062 109.784 243.062 110.186 243.062C110.633 243.051 111.08 243.04 111.527 243.029C111.929 243.029 112.326 243.018 112.717 242.995C113.276 242.984 113.829 242.962 114.376 242.928C115.17 242.895 115.952 242.85 116.723 242.794C117.136 242.761 117.55 242.727 117.963 242.694C118.745 242.626 119.51 242.554 120.259 242.476C121.008 242.397 121.745 242.308 122.471 242.208C122.952 242.14 123.427 242.073 123.896 242.006C124.656 241.895 125.399 241.772 126.125 241.638C126.46 241.582 126.795 241.52 127.13 241.453C127.153 241.453 127.175 241.448 127.197 241.437C127.851 241.319 128.505 241.185 129.125 241.051C129.214 241.029 129.309 241.006 129.41 240.984C129.711 240.917 130.007 240.85 130.298 240.783C130.633 240.705 130.963 240.621 131.287 240.532C131.611 240.453 131.929 240.37 132.242 240.28C132.253 240.28 132.259 240.28 132.259 240.28C132.572 240.191 132.879 240.101 133.181 240.012C133.438 239.945 133.695 239.872 133.951 239.794C134.041 239.772 134.13 239.744 134.22 239.71C134.454 239.643 134.683 239.571 134.907 239.492C135.231 239.392 135.544 239.286 135.845 239.174C136.091 239.096 136.326 239.012 136.549 238.923C136.672 238.889 136.789 238.85 136.901 238.805C137.102 238.727 137.303 238.649 137.505 238.571C137.756 238.487 138.007 238.37 138.259 238.269C138.27 238.269 138.281 238.269 138.292 238.269C138.516 238.18 138.734 238.085 138.946 237.984C139.058 237.939 139.164 237.895 139.264 237.85C139.432 237.772 139.599 237.694 139.767 237.615C140.27 237.392 140.756 237.157 141.225 236.911C141.426 236.811 141.622 236.71 141.812 236.61C142.024 236.498 142.231 236.381 142.432 236.258C142.147 238.437 144.543 241.52 144.275 245.626C144.063 249.012 143.689 252.297 143.152 255.481C148.247 255.246 153.365 253.889 158.504 251.408C159.61 250.889 160.532 250.319 161.286 249.733C161.309 249.71 161.348 249.682 161.404 249.649C161.504 249.571 161.605 249.487 161.705 249.397C161.75 249.353 161.8 249.308 161.856 249.263C162.728 248.543 163.364 247.788 163.834 247.068Z" fill="#15404D"/>
<path d="M94.349 229.839C93.7456 231.582 93.2763 232.839 93.0585 233.241C92.4719 234.347 92.1032 235.135 91.8853 235.604C88.3155 234.23 80.0698 231.096 76.8185 230.124C75.6956 229.789 74.5895 229.571 73.6174 229.403C74.4051 228.615 75.3437 227.643 76.3828 226.554C82.4665 226.403 90.863 228.766 94.349 229.839Z" fill="#15404D"/>
<path d="M167.454 221.694C166.231 223.152 164.772 224.861 164.035 227.275C162.745 231.448 159.426 231.783 154.951 231.347C152.32 231.096 148.734 231.867 146.203 232.554C146.08 232.331 145.924 232.051 145.734 231.716C145.7 231.66 145.667 231.599 145.633 231.532C145.382 231.079 145.097 230.543 144.778 229.94C147.091 227.643 151.549 223.403 155.521 220.42C156.409 219.766 157.264 219.163 158.069 218.66C160.666 219.063 163.532 219.465 166.214 219.817C166.337 219.973 166.46 220.135 166.582 220.303C166.605 220.347 166.633 220.387 166.666 220.42C166.946 220.822 167.208 221.247 167.454 221.694Z" fill="#15404D"/>
<path d="M78.1423 247.621C76.2652 246.565 73.701 244.805 70.9692 242.09C67.4665 238.621 67.986 235.822 68.8072 234.263C69.4273 238.453 73.282 242.358 76.1647 245.274C76.9356 246.029 77.5725 246.833 78.1423 247.621Z" fill="#B6524A"/>
<path d="M181.599 229.051C178.917 234.632 168.476 243.749 163.7 247.755C163.744 247.531 163.789 247.302 163.834 247.068C164.068 245.425 163.968 243.598 162.828 242.107C160.13 238.554 159.393 236.208 165.929 232.219C169.767 229.872 169.364 225.23 167.454 221.694C167.208 221.247 166.946 220.822 166.666 220.42C166.633 220.387 166.605 220.347 166.582 220.303C166.929 220.191 167.281 220.09 167.638 220.001C171.275 220.47 174.409 220.772 175.867 220.688C177.091 220.621 178.214 220.269 179.219 219.8C181.582 220.94 184.18 223.671 181.599 229.051Z" fill="#B6524A"/>
<path d="M179.957 212.962L181.113 212.392C181.314 211.677 181.677 211.275 182.202 211.186L182.554 212.778C182.621 213.079 182.504 213.381 182.269 213.582C181.783 213.984 180.912 214.638 180.359 214.822" stroke="#64312C" stroke-width="0.33519" stroke-linecap="round"/>
<path d="M229.464 112.422C228.207 113.075 226.866 113.763 225.425 113.763C224.269 113.763 223.079 113.31 222.425 112.321C222.308 112.137 222.593 111.969 222.71 112.154C223.313 113.075 224.47 113.461 225.542 113.427C226.883 113.394 228.123 112.74 229.296 112.137C229.481 112.036 229.648 112.321 229.464 112.422Z" fill="#4A4947"/>
<path d="M235.179 114.651C235.162 114.735 235.095 114.818 235.012 114.818C234.928 114.818 234.827 114.735 234.844 114.651C234.877 114.181 234.676 113.695 234.291 113.411C234.224 113.36 234.19 113.26 234.224 113.176C234.274 113.109 234.391 113.075 234.458 113.126C234.944 113.461 235.229 114.047 235.179 114.651Z" fill="#4A4947"/>
<path d="M104.857 163.488C107.907 166.102 119.27 174.499 131.237 165.952C131.89 165.482 132.728 165.399 133.432 165.751L135.443 166.723C136.281 167.142 136.767 168.047 136.616 168.985C135.912 173.343 134.404 185.577 138.896 188.259C139.851 188.828 140.22 190.035 139.817 191.091C138.041 195.733 135.326 205.839 135.074 208.387C134.622 213.197 135.359 214.889 136.466 218.66C137.371 221.778 143.806 232.101 143.102 233.61C142.633 234.599 130.399 236.442 126.024 237.716C121.65 238.99 114.025 242.476 109.08 240.951C104.136 239.409 95.6729 238.185 95.6729 234.9C95.6729 234.18 103.265 221.225 104.958 215.778C106.416 211.119 100.449 194.024 98.9577 188.761C98.7901 188.208 98.3209 185.577 98.8404 185.309C100.181 184.622 101.589 181.622 100.449 165.499C100.382 164.561 100.969 163.706 101.874 163.438L102.98 163.103C103.634 162.901 104.338 163.052 104.857 163.488Z" fill="#EA6557"/>
<defs>
<filter id="filter0_i_105_91" x="107.294" y="0.121216" width="266" height="277.27" filterUnits="userSpaceOnUse" color-interpolation-filters="sRGB">
<feFlood flood-opacity="0" result="BackgroundImageFix"/>
<feBlend mode="normal" in="SourceGraphic" in2="BackgroundImageFix" result="shape"/>
<feColorMatrix in="SourceAlpha" type="matrix" values="0 0 0 0 0 0 0 0 0 0 0 0 0 0 0 0 0 0 127 0" result="hardAlpha"/>
<feOffset dx="10" dy="10"/>
<feGaussianBlur stdDeviation="10"/>
<feComposite in2="hardAlpha" operator="arithmetic" k2="-1" k3="1"/>
<feColorMatrix type="matrix" values="0 0 0 0 0 0 0 0 0 0 0 0 0 0 0 0 0 0 0.25 0"/>
<feBlend mode="normal" in2="shape" result="effect1_innerShadow_105_91"/>
</filter>
</defs>
</svg>
