<svg width="508" height="637" viewBox="0 0 508 637" fill="none" xmlns="http://www.w3.org/2000/svg">
<path fill-rule="evenodd" clip-rule="evenodd" d="M257.247 0.00989659C344.262 1.23131 370.915 115.693 419.328 188.07C459.599 248.275 510.899 302.302 507.872 374.691C503.994 467.449 487.18 581.708 401.393 617.019C317.013 651.751 239.079 564.709 161.003 517.465C97.1891 478.852 18.1241 448.61 2.47391 375.638C-13.0399 303.303 47.8464 244.649 89.3636 183.438C138.319 111.26 170.093 -1.21347 257.247 0.00989659Z" fill="url(#paint0_radial_103_90)"/>
<path d="M95.6801 500.673C87.3307 459.142 101.04 447.857 103.329 427.172C105.645 406.487 77.1499 394.852 90.3473 360.269C103.572 325.66 138.746 334.737 149.735 316.691C160.697 298.646 149.87 288.573 177.18 272.951C194.956 262.825 200.208 252.671 201.717 246.799C203.144 241.197 205.918 235.999 210.066 232.04C228.892 213.914 247.692 231.528 256.768 250.247C267.084 271.551 284.644 263.74 306.191 281.005C327.738 298.269 318.715 328.326 338.161 336.326C357.607 344.325 360.893 370.908 353.54 387.176C346.16 403.443 357.822 412.358 372.501 432.531C382.305 445.98 381.847 468.882 371.127 501.238" stroke="#E5C2A5" stroke-width="0.808"/>
<path d="M89.0275 501.238C80.0318 459.276 86.3072 442.685 88.7851 421.758C91.2899 400.858 65.9456 387.176 82.2672 353.132C96.892 322.59 129.643 328.865 141.467 310.631C153.317 292.397 141.628 282.217 171.12 266.434C190.27 256.172 195.953 245.91 197.569 240.012C199.131 234.329 202.121 229.104 206.565 225.091C226.872 206.776 250.574 218.358 260.35 237.265C271.501 258.785 287.068 257.115 310.285 274.567C333.528 292.02 323.778 322.401 344.786 330.454C365.767 338.534 369.296 365.414 361.377 381.87C353.432 398.299 365.983 407.295 381.847 427.683C392.405 441.276 391.417 465.974 378.884 501.777" stroke="#E5C2A5" stroke-width="0.808"/>
<path d="M258.25 261.074C268.35 282.378 285.506 274.567 306.541 291.832C327.576 309.096 318.742 339.154 337.757 347.153C356.745 355.125 359.95 381.735 352.759 398.003C345.567 414.271 356.96 423.186 371.289 443.359C380.859 456.807 380.859 475.912 371.289 500.673H102.252C94.1178 459.142 111.867 457.93 114.129 437.245C116.392 416.56 86.6573 400.939 99.5583 366.329C112.432 331.72 142.975 345.564 153.694 327.518C164.414 309.473 153.829 299.4 180.52 283.779C197.865 273.625 203.009 263.498 204.491 257.626C205.891 252.024 208.611 246.826 212.624 242.867C231.02 224.741 249.388 242.355 258.25 261.074Z" fill="#F7E4D2"/>
<path d="M257.334 270.016C266.976 290.377 283.378 282.917 303.498 299.427C323.644 315.937 315.187 344.702 333.367 352.351C351.547 359.973 354.617 385.425 347.722 400.993C340.854 416.533 351.735 425.071 365.444 444.355C374.602 457.229 374.602 475.508 365.444 499.192H108.123C100.34 459.465 117.308 458.307 119.462 438.511C121.644 418.715 93.2022 403.767 105.538 370.666C117.873 337.565 147.069 350.816 157.33 333.551C167.592 316.314 157.465 306.672 182.998 291.724C199.589 282.028 204.491 272.305 205.891 266.703C207.238 261.343 209.824 256.387 213.702 252.59C231.289 235.245 248.85 252.105 257.334 270.016V270.016Z" stroke="white" stroke-width="0.808"/>
<path d="M313.894 355.367C313.274 356.202 309.773 355.206 307.699 353.563C307.699 356.256 306.083 359.865 305.006 359.785C303.821 359.704 301.693 357.845 302.043 356.041C302.366 354.236 304.252 353.078 304.063 352.486C303.902 351.893 301.37 352.405 299.673 351.812C297.976 351.22 295.175 347.826 298.488 347.126C300.679 346.641 302.681 347.126 304.494 348.58C304.656 348.67 304.862 348.805 305.114 348.984C303.956 346.857 301.02 345.429 300.966 345.429C300.831 345.348 300.777 345.16 300.831 345.025C300.912 344.863 301.074 344.81 301.235 344.89C301.343 344.944 303.417 345.941 304.844 347.557C304.252 345.429 304.629 343.032 304.656 342.897C304.683 342.736 304.844 342.628 305.006 342.655C305.167 342.709 305.275 342.843 305.248 343.005C305.248 343.032 304.764 346.022 305.652 348.176C305.688 347.961 305.715 347.79 305.733 347.665C305.823 345.348 306.766 343.508 308.561 342.143C311.254 340.096 312.009 344.433 311.335 346.102C310.689 347.772 308.642 349.361 308.965 349.9C309.315 350.412 311.389 349.738 312.978 350.654C314.567 351.597 314.594 354.425 313.894 355.367Z" fill="#DBA291"/>
<path d="M134.976 381.735C134.114 381.816 132.821 379.123 132.713 376.941C131.07 378.422 127.946 379.392 127.407 378.692C126.815 377.911 126.815 375.594 128.108 374.813C129.401 374.032 131.124 374.571 131.394 374.14C131.663 373.709 129.966 372.416 129.401 371.043C128.862 369.696 129.427 366.114 131.663 367.757C133.153 368.87 133.943 370.378 134.033 372.282C134.069 372.425 134.096 372.614 134.114 372.847C134.787 370.989 134.06 368.403 134.06 368.376C134.006 368.242 134.087 368.107 134.222 368.08C134.356 368.053 134.491 368.107 134.518 368.242C134.545 368.349 135.057 370.154 134.841 371.931C135.838 370.396 137.507 369.346 137.615 369.292C137.723 369.211 137.858 369.238 137.938 369.373C138.019 369.481 137.965 369.642 137.858 369.696C137.831 369.723 135.73 371.043 134.922 372.766C135.066 372.659 135.182 372.578 135.272 372.524C136.744 371.321 138.387 370.899 140.201 371.258C142.921 371.824 140.659 374.625 139.285 375.137C137.885 375.648 135.784 375.244 135.649 375.729C135.541 376.241 137.077 377.157 137.373 378.638C137.669 380.119 135.945 381.654 134.976 381.735Z" fill="#DBA291"/>
<path d="M225.822 277.907C224.96 277.988 223.667 275.268 223.559 273.113C221.89 274.594 218.792 275.537 218.254 274.837C217.661 274.083 217.661 271.739 218.954 270.958C220.247 270.204 221.97 270.716 222.24 270.285C222.509 269.881 220.812 268.588 220.247 267.215C219.708 265.841 220.247 262.259 222.509 263.929C223.999 265.024 224.789 266.523 224.879 268.427C224.915 268.588 224.942 268.786 224.96 269.019C225.633 267.161 224.906 264.575 224.906 264.548C224.852 264.414 224.933 264.279 225.068 264.225C225.202 264.198 225.337 264.279 225.364 264.414C225.391 264.494 225.903 266.326 225.687 268.077C226.684 266.541 228.354 265.491 228.461 265.437C228.569 265.383 228.704 265.41 228.784 265.518C228.865 265.626 228.811 265.787 228.704 265.868C228.677 265.868 226.576 267.188 225.768 268.911C225.912 268.822 226.028 268.75 226.118 268.696C227.59 267.475 229.233 267.053 231.047 267.43C233.767 267.969 231.505 270.797 230.131 271.309C228.731 271.793 226.63 271.416 226.495 271.901C226.36 272.386 227.923 273.302 228.219 274.783C228.515 276.264 226.791 277.826 225.822 277.907Z" fill="#DBA291"/>
<path d="M186.984 314.914C186.688 315.291 186.149 315.371 185.772 315.075C185.368 314.806 185.287 314.267 185.584 313.863C185.853 313.486 186.418 313.405 186.796 313.702C187.173 313.971 187.253 314.51 186.984 314.914Z" fill="white"/>
<path d="M189.219 311.197C188.923 311.601 188.384 311.682 188.007 311.385C187.603 311.089 187.523 310.55 187.819 310.173C188.115 309.769 188.654 309.689 189.031 309.985C189.435 310.281 189.516 310.82 189.219 311.197Z" fill="white"/>
<path d="M191.832 317.041C191.536 317.418 190.997 317.499 190.62 317.23C190.216 316.934 190.135 316.395 190.431 316.018C190.701 315.614 191.266 315.533 191.643 315.829C192.02 316.126 192.101 316.664 191.832 317.041Z" fill="white"/>
<path d="M303.902 325.094C303.632 325.471 303.094 325.552 302.69 325.283C302.312 324.987 302.232 324.448 302.528 324.044C302.797 323.667 303.336 323.586 303.74 323.882C304.117 324.152 304.198 324.717 303.902 325.094Z" fill="white"/>
<path d="M306.164 321.378C305.868 321.782 305.329 321.862 304.925 321.566C304.548 321.297 304.467 320.731 304.763 320.354C305.033 319.977 305.598 319.896 305.975 320.166C306.353 320.462 306.433 321.001 306.164 321.378Z" fill="white"/>
<path d="M308.75 327.222C308.48 327.626 307.942 327.707 307.538 327.411C307.161 327.114 307.08 326.576 307.376 326.199C307.645 325.822 308.184 325.741 308.588 326.01C308.965 326.306 309.046 326.845 308.75 327.222Z" fill="white"/>
<path d="M262.667 289.839C262.37 290.216 261.832 290.297 261.455 290C261.078 289.731 260.997 289.192 261.266 288.788C261.562 288.411 262.101 288.33 262.478 288.627C262.882 288.896 262.963 289.435 262.667 289.839Z" fill="white"/>
<path d="M264.902 286.122C264.633 286.526 264.067 286.607 263.69 286.31C263.313 286.014 263.232 285.475 263.502 285.098C263.798 284.721 264.337 284.641 264.741 284.91C265.118 285.206 265.198 285.745 264.902 286.122Z" fill="white"/>
<path d="M267.515 291.966C267.218 292.37 266.68 292.451 266.303 292.155C265.926 291.859 265.845 291.32 266.114 290.943C266.41 290.539 266.949 290.458 267.326 290.754C267.73 291.051 267.811 291.589 267.515 291.966Z" fill="white"/>
<path d="M273.898 340.446C273.521 340.123 273.494 339.585 273.79 339.207C274.086 338.83 274.652 338.777 275.002 339.1C275.379 339.396 275.433 339.962 275.137 340.312C274.814 340.689 274.275 340.743 273.898 340.446Z" fill="white"/>
<path d="M277.48 342.87C277.103 342.574 277.049 342.009 277.372 341.658C277.669 341.281 278.207 341.227 278.584 341.524C278.961 341.847 279.015 342.386 278.692 342.763C278.396 343.113 277.857 343.167 277.48 342.87Z" fill="white"/>
<path d="M271.528 345.16C271.151 344.863 271.097 344.325 271.393 343.948C271.716 343.571 272.255 343.517 272.632 343.84C272.982 344.136 273.036 344.675 272.74 345.052C272.444 345.429 271.878 345.483 271.528 345.16Z" fill="white"/>
<path d="M148.819 358.68C148.819 359.3 148.308 359.785 147.715 359.785C147.096 359.785 146.611 359.3 146.611 358.68C146.611 358.088 147.096 357.576 147.715 357.576C148.308 357.576 148.819 358.088 148.819 358.68Z" fill="white"/>
<path d="M296.845 301.716C296.845 302.47 296.226 303.09 295.471 303.09C294.717 303.09 294.098 302.47 294.098 301.716C294.098 300.962 294.717 300.343 295.471 300.343C296.226 300.343 296.845 300.962 296.845 301.716Z" fill="white"/>
<path d="M202.04 344.486C202.04 345.268 201.42 345.86 200.666 345.86C199.912 345.86 199.292 345.268 199.292 344.486C199.292 343.732 199.912 343.14 200.666 343.14C201.42 343.14 202.04 343.732 202.04 344.486Z" fill="white"/>
<path d="M228.246 254.852C228.246 255.31 227.896 255.687 227.411 255.687C226.953 255.687 226.576 255.31 226.576 254.852C226.576 254.394 226.953 254.017 227.411 254.017C227.896 254.017 228.246 254.394 228.246 254.852Z" fill="white"/>
<path d="M292.293 377.857C292.293 378.53 291.728 379.096 291.028 379.096C290.354 379.096 289.789 378.53 289.789 377.857C289.789 377.157 290.354 376.591 291.028 376.591C291.728 376.591 292.293 377.157 292.293 377.857Z" fill="white"/>
<path d="M210.685 283.159C210.685 283.833 210.12 284.398 209.446 284.398C208.746 284.398 208.181 283.833 208.181 283.159C208.181 282.459 208.746 281.92 209.446 281.92C210.12 281.92 210.685 282.459 210.685 283.159Z" fill="white"/>
<path d="M73.5408 491.65H405.683C408.134 491.65 408.807 495.017 406.544 495.933C384.324 505.063 325.394 525.748 242.844 528.118C166.057 530.299 101.902 510.315 72.1672 499.03C68.208 497.522 69.2853 491.65 73.5408 491.65Z" fill="#F7E4D2"/>
<path d="M178.392 452.489L175.51 453.189C167.556 452.776 162.169 451.744 159.35 450.092C155.149 447.614 153.21 440.396 149.681 437.972C146.126 435.548 138.854 439.642 132.659 437.972C126.492 436.275 126.869 429.111 121.886 425.152C116.877 421.193 109.012 424.425 102.386 421.139C95.7608 417.88 99.316 409.8 86.8728 406.81C78.0656 404.682 74.4835 400.346 78.2003 396.926C78.2003 396.926 85.7955 387.714 95.3299 388.792C104.891 389.869 109.578 391.512 116.176 387.041C122.802 382.543 127.731 385.506 133.279 389.061C138.827 392.616 144.995 386.799 154.879 389.95C164.791 393.101 166.999 399.781 168.373 403.039C169.747 406.325 183.51 408.938 184.237 422.081C184.722 430.826 182.773 440.962 178.392 452.489Z" fill="#B9BC7E"/>
<path d="M176.453 448.368C174.37 430.503 167.188 417.503 154.906 409.369C136.484 397.195 106.292 396.899 97.1344 396.387C91.0295 396.046 87.9771 395.875 87.9771 395.875C112.612 394.313 131.043 396.019 143.271 400.993C168.427 411.227 175.618 427.953 176.453 448.368Z" fill="#FFFBF4"/>
<path d="M162.933 420.169C152.662 410.994 146.755 402.591 145.21 394.959C142.894 383.513 149.681 379.23 145.103 373.44C140.524 367.649 142.571 357.226 147.5 354.586C152.455 351.947 154.475 346.183 154.96 338.211C155.418 330.266 161.505 327.303 163.39 329.511C168.562 335.598 165.976 341.82 173.921 345.671C181.84 349.55 184.641 357.576 182.648 364.121C180.655 370.693 189.408 372.793 195.199 382.813C200.962 392.832 196.788 401.208 194.337 407.483C191.886 413.786 198.673 421.354 196.195 428.599C194.561 433.429 188.061 439.821 176.695 447.776C171.201 445.729 166.613 436.527 162.933 420.169Z" fill="#CFC293"/>
<path d="M180.089 398.084C183.16 412.233 183.51 426.858 181.14 441.958C180.457 421.166 178.069 402.339 173.975 385.479C169.899 368.637 166.165 353.671 162.771 340.581C163.148 343.867 175.484 376.86 180.089 398.084Z" fill="#FFFBF4"/>
<path d="M165.006 430.404C162.906 419.63 173.49 414.675 173.921 411.739C174.379 408.83 174.81 402.959 182.163 398.38C189.543 393.774 195.71 397.249 199.481 393.209C203.225 389.196 206.618 385.775 212.894 388.065C219.169 390.327 222.644 388.038 230.131 385.183C237.646 382.355 245.672 388.253 245.672 388.253C249.416 390.273 247.369 394.502 240.689 398.03C231.236 403.039 235.787 408.83 231.074 412.843C226.388 416.856 219.358 415.86 216.126 420.088C212.894 424.317 214.672 430.054 210.012 432.693C205.353 435.306 198.619 433.501 196.249 436.194C193.879 438.888 193.798 445.109 190.889 447.964C188.95 449.886 184.802 451.834 178.446 453.809L175.968 453.836C170.061 445.397 166.407 437.586 165.006 430.404Z" fill="#B9BC7E"/>
<path d="M193.825 404.925C202.713 398.389 217.293 393.218 237.565 389.411C237.565 389.411 235.123 390.174 230.239 391.701C222.94 393.99 198.538 400.454 186.122 414.109C177.863 423.213 174.72 435.207 176.695 450.092C173.194 433.393 175.564 418.365 193.825 404.925Z" fill="#FFFBF4"/>
<path d="M175.968 453.836C174.227 457.463 171.659 459.77 168.265 460.758C163.175 462.212 161.182 459.842 155.122 457.418C149.089 454.967 147.769 460.111 139.097 461.323C133.315 462.131 128.898 462.006 125.845 460.946C127.156 456.475 131.367 452.615 138.477 449.365C145.587 446.115 155.903 446.348 169.423 450.065L175.968 453.836Z" fill="#9A9B82"/>
<path d="M179.416 450.792C183.061 446.591 187.514 444.633 192.775 444.921C200.693 445.325 202.094 448.099 205.972 448.26C209.85 448.449 211.978 447.21 217.284 449.015C220.767 450.218 223.542 451.636 225.606 453.27C222.033 458.459 217.446 460.38 211.843 459.034C203.467 457.014 197.138 455.721 194.391 458.522C192.577 460.389 185.925 459.617 174.433 456.206L179.416 450.792Z" fill="#9A9B82"/>
<path d="M291.297 397.383C291.97 386.422 294.286 382.112 296.872 383.836C299.458 385.56 301.828 395.875 305.06 395.848C308.265 395.821 305.922 389.223 304.844 381.116C303.767 373.036 310.635 363.178 314.082 364.686C317.53 366.195 316.668 382.328 321.193 381.008C325.718 379.688 322.917 371.554 323.132 366.41C323.347 361.239 331.751 352.836 334.363 354.129C336.976 355.421 333.232 369.615 336.249 369.184C339.265 368.753 337.541 360.162 339.05 355.852C340.558 351.543 347.884 347.018 350.685 349.173C353.486 351.327 347.884 361.023 351.116 361.239C354.348 361.454 354.563 354.559 357.553 350.466C360.569 346.372 369.188 345.079 373.066 347.449C376.945 349.819 362.078 356.068 366.387 358.653C370.696 361.239 378.022 352.836 385.967 352.97C393.94 353.105 399.111 356.93 400.592 361.023C402.101 365.117 383.597 363.609 384.028 366.41C384.459 369.184 398.034 369.831 400.188 371.77C402.343 373.709 395.879 379.527 389.846 378.234C383.813 376.941 371.989 376.079 373.928 379.311C375.867 382.543 394.155 383.836 395.448 385.56C396.741 387.283 391.785 394.582 381.901 392.482C371.989 390.381 360.569 389.223 362.724 392.482C364.879 395.767 387.045 396.522 387.691 398.892C388.338 401.262 384.675 408.372 375.571 407.079C366.468 405.787 345.298 400.831 348.746 405.571C352.193 410.311 379.53 411.173 379.315 414.459C379.099 417.772 372.851 422.566 363.801 422.566C354.779 422.566 344.221 415.914 336.679 416.775C329.165 417.637 333.232 421.058 348.53 423.859C363.801 426.66 367.68 428.384 366.387 431.508C365.094 434.632 355.21 441.312 331.751 437.218C316.093 434.489 304.467 430.682 296.872 425.798C295.795 423.105 290.623 408.372 291.297 397.383Z" fill="#D1C795"/>
<path d="M293.182 443.493C301.244 422.809 309.962 406.738 319.334 395.283C333.394 378.099 360.542 367.73 373.632 367.003C353.001 370.827 336.06 380.945 322.809 397.357C309.54 413.75 300.409 433.16 295.418 455.586L289.977 454.509L293.182 443.493Z" fill="#FFFBF4"/>
<path d="M74.1334 489.038C75.2825 484.746 78.6851 481.604 84.3411 479.611C92.7982 476.648 94.064 484.647 99.3968 484.324C102.952 484.109 105.556 487.458 107.208 494.37H72.248L74.1334 489.038Z" fill="#9A9B82"/>
<path d="M92.475 494.424C91.7208 490.734 90.3203 486.237 88.5966 481.415C74.5374 474.054 61.2592 463.532 48.7622 449.85C60.3076 451.484 69.5727 455.344 76.5574 461.431C79.4662 463.936 81.8632 466.683 83.8024 469.349C82.0787 465.255 80.2742 461.215 78.5235 457.391C67.2295 451.717 56.4831 443.215 46.2843 431.885C55.2621 433.214 62.4623 436.266 67.8848 441.042C70.4974 443.359 72.5982 445.89 74.2142 448.287C72.0864 443.87 70.3088 440.315 69.2315 438.241C61.4208 428.976 55.0197 417.925 50.028 405.086C57.9464 409.521 63.5935 414.935 66.9691 421.327C70.3088 427.63 71.2246 434.067 71.44 437.73C72.7867 440.342 74.9683 444.705 77.5 450.011C75.6147 438.861 75.3364 427.405 76.6651 415.644C81.6208 423.257 84.1077 430.673 84.1256 437.891C84.1526 445.729 81.5131 452.327 80.0587 455.398C83.4792 462.831 87.223 471.315 90.1048 479.153C87.3217 464.573 86.7741 449.356 88.4619 433.501C94.872 443.215 98.122 452.705 98.2118 461.97C98.3195 473.416 93.9832 482.897 92.448 485.859C93.3638 488.822 94.1179 491.569 94.6296 493.993L92.475 494.424Z" fill="#B9BC7E"/>
<path d="M366.064 465.525C364.798 456.287 365.875 449.015 369.996 451.546C380.258 457.903 371.397 473.497 376.46 471.127C381.523 468.757 380.527 450.173 387.368 442.578C394.209 434.982 408.645 430.404 406.868 436.76C405.09 443.089 399.515 452.974 392.431 457.014C385.321 461.081 383.301 473.497 386.587 473.712C389.9 473.901 391.92 463.101 399.515 458.549C407.137 453.97 412.201 452.22 411.689 455.64C411.177 459.061 409.911 466.414 398.249 472.474C390.474 476.532 384.989 481.523 381.793 487.448H371.127C373.686 479.072 367.33 474.763 366.064 465.525Z" fill="#9A9B82"/>
<path d="M361.728 481.658C368.192 479.799 375.598 482.223 379.665 485.536C383.732 488.876 384.675 483.328 393.913 485.536C400.09 487.027 404.228 489.747 406.329 493.697C402.63 494.559 395.969 494.99 386.345 494.99C376.72 494.99 365.678 494.308 353.217 492.943C354.563 486.658 357.4 482.897 361.728 481.658Z" fill="#D7CA8C"/>
<path d="M345.972 500.807C345.972 505.871 295.929 509.965 234.198 509.965C172.494 509.965 122.452 505.871 122.452 500.807C122.452 495.744 172.494 491.65 234.198 491.65C295.929 491.65 345.972 495.744 345.972 500.807Z" fill="#E2C9B5"/>
<path d="M338.188 450.281L329.704 459.222C329.704 459.222 329.695 459.231 329.677 459.249L328.088 460.919C328.088 460.937 328.088 460.946 328.088 460.946L327.98 461.054C327.98 461.027 327.953 461.027 327.953 461.027C309.611 449.688 291.943 432.801 287.472 428.438C285.21 426.391 283.055 423.913 281.385 420.977C277.48 414.028 272.174 401.1 268.511 391.647L268.026 393.694L261.374 421.812C264.229 426.148 268.107 432.828 271.42 441.069C273.117 445.244 274.652 449.823 275.837 454.698L237.726 477.133V477.699L237.215 477.429L236.703 477.726V477.16L197.73 456.206C198.996 450.038 200.828 444.301 202.821 439.265C202.848 439.184 202.875 439.103 202.902 439.022C205.622 432.208 208.638 426.606 210.928 422.782L203.09 394.502L202.04 390.677L201.474 388.63C197.757 397.895 190.889 414.378 186.095 422.485C184.371 425.394 182.19 427.818 179.847 429.838C175.322 434.094 157.277 450.658 138.746 461.673L137.05 459.815L128.754 450.711L171.013 410.958L185.287 370.154C190.764 358.375 195.558 352.405 199.67 352.243V352.27C200.801 351.301 202.094 350.493 203.548 349.927C204.033 349.738 204.518 349.55 205.002 349.361V349.334C207.777 348.203 210.901 346.722 214.025 344.89C217.715 342.736 221.405 340.015 224.556 336.676C225.014 333.525 225.202 329.054 225.256 326.172C225.274 325.005 225.283 324.035 225.283 323.263L234.279 324.179L243.221 322.913C243.275 324.457 243.373 326.208 243.517 328.165C243.706 330.804 244.002 333.929 244.46 336.299C245.914 337.726 247.476 339.046 249.092 340.204C254.748 344.352 261.024 347.018 265.953 348.742C267.218 349.173 268.377 349.792 269.454 350.546C270.72 350.87 276.295 353.105 283.19 368.673L296.683 409.746L338.188 450.281Z" fill="#5E4453"/>
<path d="M249.092 340.204C247.665 341.847 243.221 345.321 230.697 348.203C219.385 350.807 210.82 351.193 205.002 349.361V349.334C207.777 348.203 210.901 346.722 214.025 344.89C217.715 342.736 221.405 340.015 224.556 336.676C225.014 333.525 225.202 329.054 225.256 326.172L243.517 328.165C243.706 330.804 244.002 333.929 244.46 336.299C245.914 337.726 247.476 339.046 249.092 340.204Z" fill="#3F2935"/>
<path d="M258.654 400.858C252.701 403.497 242.305 398.38 233.471 401.235C224.637 404.09 220.247 412.251 218.55 422.728C217.401 429.694 218.29 438.241 221.216 448.368C215.955 449.823 209.85 446.707 202.902 439.022C205.622 432.208 208.638 426.606 210.928 422.782L202.04 390.677L201.474 388.63C200.056 381.322 201.124 374.876 204.679 369.292C203.566 375.253 204.051 380.963 206.134 386.422C209.231 394.582 216.557 394.582 224.206 394.394C231.855 394.205 231.747 391.593 240.393 393.451C254.802 396.549 260.431 395.148 263.798 390.408C266.006 387.31 264.606 398.218 258.654 400.858Z" fill="#3F2935"/>
<path d="M220.354 322.482C218.056 323.757 215.641 322.904 213.109 319.923C209.312 315.452 210.201 309.689 212.894 309.527C214.689 309.419 216.27 310.757 217.634 313.54L220.354 322.482Z" fill="#EA8D78"/>
<path d="M251.435 312.894C252.692 310.057 254.219 308.665 256.014 308.719C258.707 308.773 259.839 314.483 256.203 319.088C253.797 322.177 251.417 323.128 249.065 321.943L251.435 312.894Z" fill="#EA8D78"/>
<path d="M252.647 304.275C252.971 320.947 243.005 335.868 235.087 336.029C225.499 336.218 216.207 320.543 215.91 304.975C215.695 293.475 222.59 284.021 234.09 283.779C245.591 283.563 252.405 292.774 252.647 304.275Z" fill="#FFA488"/>
<path d="M226.872 302.955C228.937 302.919 230.203 303.584 230.67 304.948C229.772 304.697 228.093 304.661 225.633 304.841C223.694 304.984 221.827 305.307 220.031 305.81C222.545 303.943 224.825 302.991 226.872 302.955Z" fill="#2F2A00"/>
<path d="M224.987 311.52C222.347 311.412 220.776 311.08 220.274 310.523C221.925 308.405 223.676 307.354 225.526 307.372C227.375 307.408 229.027 308.396 230.481 310.335C229.53 311.251 227.698 311.646 224.987 311.52Z" fill="#EA8D78"/>
<path d="M230.481 310.335C229.44 311.538 227.77 312.157 225.472 312.193C223.075 312.22 221.728 311.547 220.974 311.035C220.624 311.089 219.87 311.197 218.873 310.901C219.519 310.847 219.995 310.721 220.301 310.523C220.283 310.523 220.274 310.523 220.274 310.523C220.292 310.523 220.301 310.523 220.301 310.523L220.327 310.55C220.705 310.658 222.832 311.305 225.445 311.278C227.366 311.26 229.045 310.945 230.481 310.335Z" fill="#2F2A00"/>
<path d="M248.365 305.271C246.552 304.823 244.666 304.571 242.709 304.517C240.267 304.428 238.597 304.526 237.699 304.814C238.13 303.431 239.369 302.713 241.416 302.659C243.481 302.623 245.797 303.494 248.365 305.271Z" fill="#2F2A00"/>
<path d="M238.104 310.173C239.468 308.18 241.075 307.139 242.925 307.049C244.774 306.959 246.561 307.938 248.284 309.985C247.8 310.559 246.246 310.954 243.625 311.17C240.932 311.385 239.091 311.053 238.104 310.173Z" fill="#EA8D78"/>
<path d="M247.611 310.523C246.884 311.062 245.564 311.789 243.167 311.843C240.869 311.915 239.181 311.358 238.104 310.173C239.558 310.748 241.246 311.008 243.167 310.954C245.78 310.874 247.88 310.146 248.23 310.012L248.284 309.985C248.608 310.164 249.083 310.272 249.712 310.308C248.742 310.658 247.961 310.577 247.611 310.523Z" fill="#2F2A00"/>
<path d="M234.764 320.085C235.662 320.103 236.487 320.148 237.242 320.219C236.272 320.974 235.392 321.333 234.602 321.297C233.794 321.243 232.896 320.92 231.909 320.327C232.914 320.13 233.866 320.049 234.764 320.085Z" fill="#EA8D78"/>
<path d="M235.248 325.498C235.177 325.498 235.114 325.498 235.06 325.498C234.988 325.498 234.925 325.507 234.871 325.525C234.871 325.507 234.871 325.498 234.871 325.498C232.878 325.463 231.235 325.157 229.943 324.583C232.061 324.26 233.399 324.143 233.956 324.233C234.467 324.313 234.845 324.798 235.033 325.121C235.249 324.771 235.599 324.286 236.11 324.179C236.649 324.089 237.987 324.152 240.123 324.367C238.849 324.996 237.215 325.373 235.222 325.498C235.24 325.498 235.248 325.498 235.248 325.498Z" fill="#743F3D"/>
<path d="M230.858 325.849C231.289 326.441 232.277 326.926 233.821 327.303C236.137 327.869 237.834 326.899 239.235 326.01C238.391 327.626 237.098 328.542 235.356 328.757C232.717 329.081 230.966 326.199 230.858 325.849Z" fill="#EA8D78"/>
<path d="M241.47 293.663C238.813 292.263 235.688 291.652 232.097 291.832C226.711 292.101 222.509 296.303 220.947 299.292C219.906 301.285 218.855 302.56 217.796 303.117C218.137 307.947 217.841 311.385 216.907 313.432C215.668 311.349 214.33 310.048 212.894 309.527C211.673 305.128 211.439 300.594 212.194 295.926C213.325 288.896 220.758 281.355 230.778 280.304C237.439 279.622 242.458 280.906 245.833 284.156C250.268 286.652 253.15 290.018 254.479 294.256C255.79 298.511 255.879 303.395 254.748 308.907C253.617 309.482 252.683 310.766 251.947 312.759C249.811 309.545 249.011 306.133 249.55 302.524C248.688 296.778 245.995 293.825 241.47 293.663Z" fill="#743F3D"/>
<path d="M247.422 287.738C246.094 288.169 241.111 286.05 232.474 281.382C232.421 280.61 232.519 279.739 232.771 278.769C233.282 276.749 234.602 274.083 238.05 272.844C238.642 272.628 239.217 272.476 239.773 272.386C244.972 271.497 249.281 275.052 250.52 278.661C251.893 282.701 249.442 287.118 247.422 287.738Z" fill="#743F3D"/>
<path d="M230.67 304.948C231.496 306.51 232.151 308.485 232.636 310.874C233.103 313.244 233.139 315.282 232.744 316.987C232.277 310.254 230.329 306.178 226.899 304.76C228.785 304.724 230.041 304.787 230.67 304.948Z" fill="#EA8D78"/>
<path d="M223.371 297.488C221.845 298.691 220.74 299.229 220.058 299.104L220.543 300.019C224.341 299.723 224.206 296.276 229.646 293.906C233.273 292.326 237.215 292.245 241.47 293.663C230.535 289.138 225.687 295.683 223.371 297.488Z" fill="#743F3D"/>
<path d="M213.648 500.188C209.357 499.865 205.828 500.412 203.063 501.831C198.889 503.932 191.186 511.931 190.081 512.389C188.95 512.847 187.981 513.062 186.122 513.197C184.291 513.305 184.991 513.493 184.183 513.87C183.626 514.104 182.702 514.184 181.409 514.113C181.068 514.956 180.646 515.45 180.143 515.594C179.389 515.809 178.5 516.402 177.692 514.597C176.884 512.82 178.419 510.638 178.365 509.857C178.311 509.103 178.365 505.494 180.762 503.016C183.133 500.538 189.839 496.337 191.563 492.35C193.313 488.391 194.983 484.755 198.054 484.621C200.101 484.531 203.557 484.836 208.423 485.536C209.644 485.303 211.996 484.962 215.479 484.513L213.648 500.188Z" fill="#FFA488"/>
<path d="M333.528 489.926C321.112 496.875 300.562 499.622 276.753 501.05C273.844 501.229 270.899 501.391 267.919 501.535L268.323 511.85C267.12 511.85 265.45 511.832 263.313 511.796C253.482 511.689 230.589 511.392 206.726 510.907C168.131 510.153 137.4 500.565 128.539 492.027C124.256 487.906 121.724 481.335 122.64 475.194C123.34 470.319 126.222 465.74 132.121 462.831C133.521 462.158 135.972 461.269 139.285 460.327C149.654 457.364 168.427 453.782 189.139 453.566C189.462 453.539 189.785 453.539 190.081 453.513C191.895 450.783 196.168 445.953 202.902 439.022C207.642 442.991 213.244 446.16 219.708 448.53C224.825 450.388 230.697 451.6 236.622 450.9C248.042 449.517 259.497 445.639 270.989 439.265C273.305 441.581 275.577 445.45 277.803 450.873C294.96 451.035 323.374 456.233 329.488 459.303C329.524 459.339 329.56 459.366 329.596 459.384C333.744 460.488 337.191 462.912 339.561 465.983C345.056 473.093 344.706 483.705 333.528 489.926Z" fill="#E9835B"/>
<path d="M137.05 459.815C129.76 465.381 125.19 468.452 123.341 469.026C120.593 469.861 118.169 469.915 115.261 469.619C112.325 469.322 111.355 470.238 111.167 468.891C111.059 468.012 112.783 467.356 116.338 466.925C115.826 466.925 112.756 466.441 110.493 466.494C108.204 466.521 105.834 465.875 106.992 464.932C107.764 464.286 110.152 463.99 114.156 464.043C112.81 464.205 110.736 463.559 108.5 463.37C106.265 463.155 103.437 463.101 104.864 461.808C105.798 460.928 107.836 460.668 110.978 461.027C109.344 460.201 108.518 459.312 108.5 458.361C108.473 456.933 109.874 454.832 110.655 452.624C111.463 450.442 112.109 450.334 112.54 451.708C112.944 453.082 111.328 456.771 111.598 457.31C111.867 457.849 113.348 458.414 117.146 457.741C119.678 457.31 121.338 456.044 122.129 453.943C121.949 453.495 121.473 453.27 120.701 453.27C119.543 453.297 117.658 453.89 115.476 453.566C113.294 453.27 112.648 452.543 112.594 452.247C112.54 451.95 113.51 451.897 115.503 451.546C117.469 451.223 120.97 450.119 122.694 450.065C123.843 450.047 125.854 450.263 128.727 450.711L137.05 459.815Z" fill="#FFA488"/>
<path d="M313.221 463.774C298.012 465.929 269.113 472.456 226.522 483.355C204.096 473.084 185.368 466.746 170.339 464.34C148.9 460.919 136.403 462.616 139.285 460.327C149.654 457.364 168.427 453.782 189.139 453.566C189.462 453.539 189.785 453.539 190.081 453.513C191.895 450.783 196.168 445.953 202.902 439.022C207.642 442.991 213.244 446.16 219.708 448.53C220.489 452.301 233.956 470.804 243.652 467.76C253.348 464.717 266.06 460.542 272.147 462.643C278.234 464.717 290.597 463.586 299.108 461.673C304.781 460.398 309.486 461.099 313.221 463.774Z" fill="#CC6A4C"/>
<path d="M329.704 459.222C329.704 459.222 329.695 459.231 329.677 459.249C329.623 459.411 329.192 460.246 328.088 460.919C328.088 460.937 328.088 460.946 328.088 460.946C328.034 460.964 327.989 460.991 327.953 461.027C309.611 449.688 291.943 432.801 287.472 428.438C285.21 426.391 283.055 423.913 281.385 420.977C277.48 414.028 272.174 401.1 268.511 391.647L270.612 373.978C275.909 396.746 281.34 411.793 286.907 419.119C292.491 426.462 306.757 439.83 329.704 459.222Z" fill="#3F2935"/>
<path d="M203.09 394.502L202.04 390.677L201.474 388.63C197.757 397.895 190.889 414.378 186.095 422.485C184.371 425.394 182.19 427.818 179.847 429.838C175.322 434.094 157.276 450.658 138.746 461.673L137.05 459.815C161.397 439.022 177.144 424.532 184.291 416.345C191.437 408.175 197.21 395.175 201.609 377.345L203.09 394.502Z" fill="#3F2935"/>
<path d="M333.528 489.926C321.112 496.875 300.562 499.622 276.753 501.05C270.109 499.973 264.417 498.141 259.677 495.555V494.37L226.549 483.355C226.747 483.409 228.659 482.924 232.286 481.9C247.369 485.267 284.537 495.394 303.902 490.95C328.788 485.24 329.731 474.763 334.309 469.565C336.087 467.518 337.945 466.494 339.561 465.983C345.056 473.093 344.706 483.705 333.528 489.926Z" fill="#CC6A4C"/>
<path d="M259.677 495.555C263.161 496.058 265.504 496.444 266.707 496.714C271.591 496.103 275.056 495.861 277.103 495.986C280.173 496.175 281.789 499.865 283.432 503.851C285.075 507.864 291.728 512.2 294.044 514.732C296.36 517.237 296.36 520.873 296.306 521.627C296.226 522.381 297.734 524.59 296.872 526.367C296.037 528.145 295.175 527.525 294.421 527.31C293.918 527.166 293.496 526.672 293.155 525.829C291.862 525.864 290.947 525.757 290.408 525.505C289.6 525.128 290.3 524.967 288.469 524.805C286.637 524.643 285.641 524.401 284.537 523.916C283.432 523.431 275.891 515.298 271.77 513.089C269.023 511.617 265.504 511.006 261.212 511.258L259.677 495.555Z" fill="#FFA488"/>
<path d="M338.188 450.281C341.079 449.886 343.099 449.715 344.248 449.769C345.971 449.823 349.446 451.008 351.412 451.385C353.378 451.762 354.375 451.843 354.321 452.139C354.24 452.435 353.567 453.136 351.385 453.405C349.203 453.674 347.345 453.055 346.187 453.001C345.415 452.983 344.93 453.198 344.733 453.647C345.487 455.748 347.121 457.05 349.634 457.553C353.432 458.28 354.94 457.741 355.21 457.229C355.479 456.691 353.917 452.947 354.375 451.6C354.833 450.227 355.479 450.334 356.233 452.543C356.987 454.751 358.334 456.879 358.28 458.334C358.244 459.285 357.4 460.156 355.748 460.946C358.89 460.641 360.928 460.937 361.862 461.835C363.236 463.182 360.435 463.155 358.199 463.316C355.964 463.478 353.863 464.097 352.516 463.909C356.52 463.927 358.899 464.259 359.654 464.905C360.812 465.902 358.415 466.494 356.125 466.414C353.863 466.333 350.766 466.764 350.281 466.737C353.836 467.24 355.542 467.931 355.398 468.811C355.21 470.13 354.24 469.215 351.331 469.457C348.395 469.673 345.971 469.592 343.224 468.703C341.393 468.092 336.886 464.932 329.704 459.222L338.188 450.281Z" fill="#FFA488"/>
<path d="M263.313 511.796C253.482 511.689 230.589 511.392 206.726 510.907C168.131 510.153 137.4 500.565 128.539 492.027C124.256 487.906 121.724 481.335 122.64 475.194C125.899 477.726 132.202 482.143 144.241 488.149C163.983 498.06 200.478 503.366 229.377 506.167C248.643 508.017 259.138 508.537 260.862 507.729L263.313 511.796Z" fill="#CC6A4C"/>
<path d="M243.032 283.24C240.447 281.983 237.098 280.96 232.986 280.17C232.878 279.685 232.807 279.218 232.771 278.769C233.282 276.749 234.602 274.083 238.05 272.844C238.642 272.628 239.217 272.476 239.773 272.386C239.127 273.032 238.454 274.298 239.046 276.372C240.07 279.873 246.938 285.152 243.032 283.24Z" fill="#603030"/>
<path d="M239.423 290.512C234.629 288.699 229.934 288.699 225.337 290.512C218.469 293.232 217.499 300.558 215.91 301.285C216.826 294.732 219.753 290.736 224.691 289.3C229.61 287.864 234.521 288.268 239.423 290.512Z" fill="#603030"/>
<path d="M244.864 285.96L242.143 292.101C244.621 290.97 245.528 288.923 244.864 285.96Z" fill="#603030"/>
<defs>
<radialGradient id="paint0_radial_103_90" cx="0" cy="0" r="1" gradientUnits="userSpaceOnUse" gradientTransform="translate(254 312.5) rotate(86.3308) scale(245.736 199.735)">
<stop offset="0.276246" stop-color="#5CDB94"/>
<stop offset="1" stop-color="#C4C4C4" stop-opacity="0"/>
</radialGradient>
</defs>
</svg>
